<svg xmlns="http://www.w3.org/2000/svg" viewBox="0 0 278.56 172.79"><defs><style>.cls-1{fill:#2556e6;}.cls-2{fill:#355ed3;}.cls-3{fill:#f1f6fc;}.cls-4{fill:#d9e8fa;}.cls-5{fill:#224dc7;}.cls-6{fill:#fdfefe;}</style></defs><g id="Layer_2" data-name="Layer 2"><g id="Layer_1-2" data-name="Layer 1"><path class="cls-1" d="M196.68,108.48c-2.22,2.48-4.36,5-6.67,7.42-4,4.11-6.89,4.06-10.12-.64-1.63-2.37-2.56-2.3-4.44-.49-4.55,4.38-9.32,8.54-13.88,12.93-7,6.75-12.92,8.17-19.65,4.54-5.47-2.94-8.37-11-6.37-19,2.65-10.68,9.09-18.86,18.26-24.68,6.19-3.93,15.18-1.72,19.13,4.13.71,1,1.88,2.22.84,3.57s-2.21.39-3.13-.19c-3.1-1.91-5.66-1-8.16,1.18-7.05,6-13,12.86-15.71,22-.64,2.18-1.36,4.93,1,6.47,2.57,1.7,4.22-.88,5.92-2.28,5.9-4.88,11.73-9.84,17.58-14.78a48.85,48.85,0,0,0,13.12-16.77,55.67,55.67,0,0,1,3.82-6.42c1.66-2.59,3.89-2.84,6.46-1.38s2,3.5.94,5.58c-2.1,4.29-4.27,8.54-6.28,12.88-.33.72-1.48,1.84-.27,2.56s1.78-.31,2.61-1.31c4.54-5.5,9.3-10.82,14-16.2,1.94-2.23,4.24-3.47,7-1.62,2.55,1.71,2.06,4,1,6.59-2.21,5.35-4.2,10.79-6.21,16.21a1.86,1.86,0,0,0,.77,2.49c6.59-4.06,10.07-10.92,14.41-17.06,1.21-1.72,1.45-5.74,4.15-4.61,3.36,1.4,1.17,4.89.12,7-4.78,9.6-12,17.54-18.7,25.77-1.31,1.61-3.31,1.43-5.06.48-2.92-1.6-5-3.85-5.23-7.38-.11-2,0-3.93-.07-5.9.06-.59.4-1.46.14-1.71C197.3,107.2,197.06,108.13,196.68,108.48Z"/><path class="cls-1" d="M240.16,69.55l2.14-.29c3,1.45,5.76,1.42,7.95-1.5l2-.52c1.5,1.47,3,.67,4.57.07,5.79-2.22,6.37-1.84,6.42,4,.06,7.58,1.66,9.72,9.34,12.48l-.05-.06c0,.73.32,1.07,1,1l-.21.19.17-.23c0,.73.32,1.07,1.05,1l-.19.26.14-.29c.12,1.41.36,2.74,2,3.14l-.05,0c-.06,4,1.74,8.11-.37,12.13-1.14,2.19-3.38,3.7-3.84,6.29l.08-.09-1.09,1.06.07,0c-1.59,0-2.89.33-2.65,2.37h-.09c-.73-.18-1.08.14-1.13.86l-.07-.34.11.33c-1.75-.4-2.88.09-3,2.06l-.21-.41.2.41c-3.06.08-5.23,1.71-7,4l-.18-.32.22.3c-3.15.55-6.18.9-6.43-3.66,6.33-3.81,12.79-7.43,18.06-12.74l1-1.14-.08.08c2.72-2.31,5.19-4.66,1-7.87l0,.06c0-.94-.09-1.76-1.27-1.87l.12.08a1.18,1.18,0,0,0-1.22-1.15.57.57,0,0,1-.53-.48c-.11-.83-.39-1.48-1.43-1.27h0c.06-.74-.23-1.06-1-.79l-.11-.08c-1-2.49-2.07-1.91-3.23-.15l.17-.1c-2,.64-2.35,2.14-2.06,4l-.1-.28.14.26c-1.79.42-1.29,1.83-1.29,3-4.17,11.11-11.7,19.73-20.3,27.57l0,0-10.21,7c-4.6,1.45-6.86,4.67-7.89,9.34-1.46,6.65-3.24,13.26-5.25,19.77-1.19,3.88.09,4.7,3.67,4.35,3.3-.32,6.66-.15,10-.38,4.19-.28,2.67,2.87,2.92,4.82s1.09,4.45-2.62,4.45c-4.15,0-8.3.36-12.46.56-1.41-1.24-3.14-.8-4.72-.74-6.38.26-12.75.54-19.11,1-3.29.24-4.53-1.07-4.16-4.25a33.06,33.06,0,0,0,.05-3.45l3-.15c4.12.9,8.29,2.33,11.93-1.26l.64-.92c1.23-.34,1.69-.93.64-2l.63-2c3-6.21,4.37-12.95,6-19.55,1.74-7.05,3.23-13.77,11.34-16.4a7.16,7.16,0,0,0,4.75-4.1l0,0a2.73,2.73,0,0,0,3-2.13l-.07,0c1,0,1.82,0,1.69-1.37l0,.3.06-.29c.73.16,1.08-.16,1.12-.88l-.06.07a2,2,0,0,0,2.21-1.95l-.08.06c2.66,0,4-1.39,4.06-4l-.06.08a2.11,2.11,0,0,0,2-2.21l-.09.1c1.75-.19,2.3-1.31,2.23-2.91l0,.07c7-5.87,9-14.23,11.08-22.55.29-1.17.32-3.15-1.46-3.15-4.6,0-9.32-.26-13.48,2.39l-2,.14c-4.51-1.66-9.18-.54-13.77-.69-6.9-.22-7.35-.72-5.13-7.6l5-.14C229.66,71.18,235,72.46,240.16,69.55Z"/><path class="cls-1" d="M221.28,6.12c1.44,5.46,2.1,11.05,3,16.61q2.77,16.79,6.15,33.47c.83,4.07-1.49,3.56-3.86,3.34-1.89-.18-1.61-1.9-1.84-3.09-.6-3.26-1.21-6.53-1.54-9.83-.42-4.19-3.47-3.25-6-3.22s-5.55-1-6,3.2c-.35,3.46-1.24,6.87-1.61,10.33-.31,3-2.26,2.85-4.29,2.66-2.71-.26-1.38-2.21-1.17-3.4q4.47-25.51,9.07-51a4.91,4.91,0,0,0,.12,1.45c.17.46.87.84.77,0-.66-5.58,3.3-4.4,6.41-4.48l-.11.38c-.05,1.44-.49,3,0,4.26C220.79,7.71,221.12,6.58,221.28,6.12Zm-3.57,7.12-1.13.07c-1.22,7.62-2.41,15.25-3.7,22.85-.52,3.09,1.84,2.43,3.12,2.2,1.87-.34,5.65,1.78,5.33-1.89C220.64,28.68,219,21,217.71,13.24Z"/><path class="cls-1" d="M144.33,31.2l-.48.15c-3.48.86-8.34-1.68-10.26,1.4-1.66,2.68-.57,7.1-.58,10.75,0,10.91,0,10.91,10.88,10.92,1.5,0,3,0,4.49,0s1.9,1,1.86,2.36,0,2.78-1.92,2.79q-9.49,0-19,0c-1.83,0-2.06-1.19-2.06-2.69q0-26.72,0-53.45c0-2,.79-2.6,2.65-2.58q8.75.09,17.49,0c1.66,0,2.45.56,2.42,2.3s-.21,2.94-2.4,2.88c-3.66-.1-7.33.1-11-.06-2.55-.11-3.58.69-3.47,3.37.19,4.49.23,9,0,13.48-.19,3.85,1.87,4.61,5,4.2,2.38-.32,4.73-1.53,7.1,0-2.11,5.14-7.13,2.08-10.49,4.12Z"/><path class="cls-1" d="M174.24,1.25l2-.27c2.89,1.44,6.47,2.08,7.08,6.15l0,17-.06,1c-.88,3-1.62,6,0,9l.08,3c0,1.67,0,3.34,0,5v2q0,6.51,0,13c0,.65-.06,1.3-.1,2l-1,.73-4.13-.24c-1.5-7.45,0-15-.8-22.46.38-2.44-.35-3.92-3.13-3.63l-10.93,0c-1.89.74-.53,2.54-1.19,3.68-1.87,5.64-.36,11.46-.89,17.17-.12,1.32.69,3.48-1.58,3.46-1.84,0-1.37-2-1.38-3.19,0-16.25,0-32.5-.06-48.75,0-2.83,1.06-3.65,3.8-3.76C166.12,1.89,170.29,3.1,174.24,1.25Zm4.13,6.88c-1.75-2.94-9.85-4.35-15.09-2.63l-.87.67a43.67,43.67,0,0,0,.05,21.9c5.17,1,10.53,3.38,14.9-1.91l1-1A32.74,32.74,0,0,0,178.37,8.13Z"/><path class="cls-1" d="M114.42,132c-4.49,1.6-9.13,1.42-13.78,1.18-3.77-.19-6-2.13-6.07-5.88-.16-5.15-.14-10.31,0-15.46.07-3.47,2-5.57,5.42-6.15a62.33,62.33,0,0,1,9.38-1.26c4-.07,5.11-2,5-5.67a141.62,141.62,0,0,1,0-16c.38-4.87-1.75-6.24-6.09-5.83a33.17,33.17,0,0,1-4-.1c-3.46-1.55-4.44.76-4.86,3.36a44.88,44.88,0,0,0-.1,5.92c0,1.13.14,2.62-1.44,2.66s-1.48-1.43-1.55-2.56A47.82,47.82,0,0,1,97.25,74l0,0c5.37-.84,10.74.24,16.11,0,3-.14,4.69,1,5,4l0,53,0,0c-1.21.19-2.59-.52-3.59.7Zm-.15-14.8c0-9.93,0-9.82-9.87-8.28-3.3.51-4.6,2-4.43,5.23.13,2.63,0,5.29,0,7.93,0,5.67,1.74,7.75,6.43,7.76,5.51,0,7.79-2.2,7.9-7.68C114.31,120.5,114.29,118.84,114.27,117.19Zm-15.13-4.78-.47-.16v11.51l.47,0Z"/><path class="cls-2" d="M98.6,49c1.19,1.86-.79,5.25,2.35,6a21.43,21.43,0,0,0,10.84-.21,1.2,1.2,0,0,0,.42-.25c2.13-1.87,1.31-17.12-1.19-18.69-1.54-1-1.29-2.15-1.21-3.42.1-1.67,1.43-1.45,2.59-1.57,6.45-.67,6.7-.45,6.7,6,0,5.49-.14,11,.05,16.46.15,4.19-2.06,6.18-5.75,6.74a53.23,53.23,0,0,1-14.43,0c-3.67-.44-5.64-2.67-5.64-6.39q0-23.45,0-46.88c0-4.05,2.33-6.16,6.14-6.46a93.17,93.17,0,0,1,11-.19c6.8.24,8.81,2.62,8.58,9.34-.07,2-.41,3.13-2.73,3.06-1.89-.07-3.31-.24-3.07-2.66.29-3-.8-5.18-4.08-4.73-3.77.53-9.11-2.74-10.64,3.93l-1.14,0c-.55-3.3,1-4.93,4.17-5.52a18.74,18.74,0,0,1,8.84.14c1.58.46,3.13.9,4.66-1.58-5.52,0-10.44-.08-15.36,0-3.05.07-4.38,2-4.38,4.9q0,23.43,0,46.84c0,1.89.16,3.6,3.26,3.19a15,15,0,0,1-1.15-7.92Zm16.68,3.45h2c0-5.55.08-11.11,0-16.66-.08-4.12-1.27-4.6-6.15-2.11,4-.07,4.44,1.84,4.22,4.82C115,43.15,115.28,47.82,115.28,52.48Z"/><path class="cls-1" d="M30.64,124.08a65.57,65.57,0,0,1,.15-13l5.56-5.27,2-.46c3.21,1.5,6.62.35,9.92.76-1.73,2.49-5.53-.79-7,2.51l-2,.31c-2.44-1.2-3.51.06-4,2.27a25.87,25.87,0,0,0-.16,14.59l.23.29c0,.28,0,.56.06.85,2.58,3.62,7.43,4.33,12,1.74l.2.15a1.41,1.41,0,0,0,1.59-1l-.12.09a1,1,0,0,0,.91-1.18l-.09.12c2.61-5.52,1.63-11.15.49-16.79l-.17-1.87a1.81,1.81,0,0,0-1.9-2.14l1.1-2.58.25-.31c1.65-.5,1.62-1.83,1.62-3.18q0-9.58,0-19.18c0-1.21-.14-2.3-1.41-2.86a.41.41,0,0,1-.45-.46c-.73-1.59-1.77-1.81-3.1-.69l-6.07,0c-3.89-1.59-4.58,1.08-4.9,3.85-.24,2.12,0,4.28-.11,6.42,0,.88-.43,1.68-1.41,1.7a1.44,1.44,0,0,1-1.47-1.61c0-5.14-1.39-10.67,4-14.33a3.66,3.66,0,0,1,2.92-.39C40,74.76,42,74,43.5,74.07c3.31.14,6.63.15,10,.22l1,.78L54.39,75c0,17.22-.09,34.43,0,51.64,0,2.93-.39,5-4,4.49-1,.13-2,.19-2.92.4a27.71,27.71,0,0,1-12.71,0c-3.52-.88-1.59-5-3.25-7.1C31.35,124.25,30.94,124.21,30.64,124.08Z"/><path class="cls-1" d="M84.27,86.11c-3.31.1-6.62.26-9.92.3-1.69,0-3,.33-3,2.4.09,12.45.14,24.9.25,37.35a6,6,0,0,0,.72,1.84c3.28,2.91,9.1,3,12,.13h0c3.07-.34,2.79-2.63,3-4.83.22-2.53-1-5.36,1.47-8.17.91,4.57.57,8.54.39,12.48a4.14,4.14,0,0,1-3.66,4.17c-4.76.5-9.57.81-14.33-.22a4.57,4.57,0,0,1-3.92-4.47c0-9.49.11-19,0-28.47,0-3.42.85-6.94-.7-10.27.47-4.47-4.19-2.34-6-4.25,5.17-1.82,5.14-1.82,5.83-7.87a26.89,26.89,0,0,1,1-3.8l1.84,0c1.76,2.64,0,6.13,2.11,8.69v0c1.72,1.92,4,.78,6,1.06,3.3.48,6.81-1,10,1,0,.65-.06,1.3-.08,2H73.52v1Z"/><path class="cls-3" d="M269.21,101.09c-5.27,5.31-11.73,8.93-18.06,12.74-2.82,2,.73,3.39.43,5.14l-12.51,2c8.6-7.84,16.13-16.46,20.3-27.57a4.32,4.32,0,0,0,1.29-3l-.14-.26.1.28a6.73,6.73,0,0,0,2.06-4l-.17.1a3.45,3.45,0,0,1,3.23.15l.12.07,1,.8h0l1.42,1.27a.57.57,0,0,0,.53.48L270,90.43l-.12-.08c.43.62.85,1.25,1.27,1.87l0-.06a10.59,10.59,0,0,1-1,7.87l.08-.08Z"/><path class="cls-1" d="M32.54,56.13c.11-.67.23-1.34.34-2,1.19-.31,1.34-1.24,1.53-2.28,1.27-7.15,2.62-14.28,3.9-21.42.42-2.31.35-2.32,2.6-3.12,1,3.52-3.22,6.88-.3,10.55l0,0c1.61,4.58,4.26,1.51,6.57.89l3-.74c1.75-1,1.46-2.66,1-4-1.68-4.57-1.52-9.47-2.71-14.12-.58-2.26-.45-4.74-2.09-6.67l-1.65-.93c-1.5,0-.89,2.66-2.89,2.16-1.3-3,.77-5.76.95-8.65.09-1.34.24-3.66,2.63-3.59s2.75,2.08,3,3.89C50.16,20,54.05,33.58,55.55,47.54c.2,1.82-.18,4.48,2.34,5.58l.3,2c-1.16.62-.52,2.9-2.36,2.74S54.58,56,54.25,54.8a24,24,0,0,1-1-6.76c0-2.1,0-4.42-3-4.83l-9.74,0c-1.38,0-2,.62-2.19,2-.52,3.33-1.41,6.62-.94,10a3.14,3.14,0,0,1-.08.87C35.73,58.3,34.13,58.87,32.54,56.13Z"/><path class="cls-2" d="M65.32,29.62c0-8.32,0-16.64,0-25C65.3,2.6,65,.79,68.21.8s3,1.71,3,3.83c0,15,.13,30-.12,44.93-.07,4.08,1.27,5.27,5.09,4.87,2.63-.27,5.32,0,8-.08,2-.06,3.11.46,3,2.78,0,2-.86,2.63-2.72,2.61-5.49-.06-11-.12-16.47,0-2.85.05-2.68-1.73-2.67-3.64Q65.34,42.85,65.32,29.62Zm2-26.79V45.59c0,12.64,0,12.67,12.87,12.51,1.54,0,3.53.83,5-2-3.89,0-7.18-.2-10.44,0-4.13.32-5.56-1.28-5.5-5.44.19-14.3.09-28.6,0-42.9C69.32,6.13,69.88,4.26,67.3,2.83Z"/><path class="cls-2" d="M57.89,53.12c-2.52-1.1-2.14-3.76-2.34-5.58-1.5-14-5.39-27.5-7.24-41.39-.24-1.81-.56-3.83-3-3.89s-2.54,2.25-2.63,3.59c-.18,2.89-2.25,5.63-.95,8.65,2,.5,1.39-2.18,2.89-2.16a236.17,236.17,0,0,1-4,25.51c-2.92-3.67,1.29-7,.3-10.55-2.25.8-2.18.81-2.6,3.12-1.28,7.14-2.63,14.27-3.9,21.42-.19,1-.34,2-1.53,2.28,2.84-16.85,5.73-33.69,8.47-50.56C41.76,1.05,43.14.79,45.16.85S49,.64,49.45,3.59C52.15,20.12,55.05,36.61,57.89,53.12ZM41.17,21.65c1.2-1.44,1.61-2.64-.05-4.67C40.38,18.86,39.8,20,41.17,21.65Z"/><path class="cls-4" d="M197.2,1.19c2.37,4.89,2,10.25,1.91,15.35-.32,12.25-.39,24.49.13,36.73a15.53,15.53,0,0,1-.82,5.87c-1,2.79-3.69,2.56-5.38,2.4a4,4,0,0,1-3.71-4.47c1.19-16.86,1-33.75,1-50.63,0-1.53-.76-3.45,1.41-4.33q.09,26.43.22,52.86c0,1.92-1,4.58,2.8,4.42,3.4-.15,2.41-2.61,2.41-4.33C197.24,37.1,197.21,19.15,197.2,1.19Z"/><path class="cls-2" d="M67.29,127.08a4.57,4.57,0,0,0,3.92,4.47c4.76,1,9.57.72,14.33.22a4.14,4.14,0,0,0,3.66-4.17c.18-3.94.52-7.91-.39-12.48-2.43,2.81-1.25,5.64-1.47,8.17-.19,2.2.09,4.49-3,4.83,2-3.6.75-7.5,1-11.25.11-1.86.12-3.18,2.55-3.24s3,1,3.1,3.25c.92,15.46-.91,17.33-16.54,16.38-7-.42-8.42-1.75-8.49-8.8-.11-10.81-.14-21.62,0-32.42,0-3.65-.21-6.34-4.91-5.61-1.75.28-2.77-.37-2.75-2.45s.83-2.88,2.67-2.6c4.45.68,5.42-1.55,5-5.43-.11-1.15-1.1-3.17,1.38-3.53a26.89,26.89,0,0,0-1,3.8c-.69,6-.66,6-5.83,7.87,1.79,1.91,6.45-.22,6,4.25q-.07,17.5-.13,35C66.43,124.66,66.16,126,67.29,127.08Z"/><path class="cls-5" d="M197.2,1.19c0,18,0,35.91,0,53.87,0,1.72,1,4.18-2.41,4.33C191,59.55,192,56.89,192,55q-.16-26.43-.22-52.86L192.24,1l1-.16h2l1,0A5.89,5.89,0,0,0,197.2,1.19Zm-.93,29.18c0-8,0-15.94-.05-23.91,0-1.43,1-3.94-1.58-3.9-2,0-1.33,2.33-1.33,3.67q-.08,23.91,0,47.82c0,1.34-.71,3.65,1.35,3.66,2.51,0,1.54-2.5,1.56-3.93C196.32,46,196.27,38.17,196.27,30.37Z"/><path class="cls-4" d="M157,59.19c-2.31-.65-1.68-2.58-1.69-4.12q0-25,0-50c0-1.56-.56-3.5,1.87-3.95Z"/><path class="cls-5" d="M20.39,81.14c0-2.16,0-4.32-.12-6.48-.1-2,.78-2.55,2.66-2.56s2.65.71,2.64,2.61q-.06,27.66-.05,55.31c0,.95.13,2.27-1.26,2.25-6.9-.13-13.75,2.28-20.66.33A6,6,0,0,1,2,131.45l.35-.39c5.87,1.79,11.71.85,17.65.22,3.52-.38,4.4-1.46,4.37-4.79-.14-16.26-.06-32.53-.06-48.8a2.68,2.68,0,0,0,0-.49c-.21-1.36.66-3.57-1.38-3.7-2.23-.15-1.43,2.1-1.6,3.44s.39,3-1,4.19Z"/><path class="cls-2" d="M118.33,78.09c-.31-3-2-4.18-5-4-5.37.23-10.74-.85-16.11,0,6.33-3.23,12.91-2.1,19.4-.87,2.56.48,3,3,3,5.21.07,17.15.14,34.31.07,51.46,0,4.36-3,2.67-5.25,2.15l.28-.2c1.27.18,2.6.61,3.59-.7l0,0c1.06-.85.89-2,.89-3.19q0-23.29,0-46.57C119.2,80.16,119.32,79,118.33,78.09Z"/><path class="cls-5" d="M157,59.19l.18-58.08,1.09-.27h12l4,.07-.1.33c-4,1.85-8.12.64-12.18.8-2.74.11-3.81.93-3.8,3.76.09,16.25,0,32.5.06,48.75,0,1.23-.46,3.17,1.38,3.19,2.27,0,1.46-2.14,1.58-3.46.53-5.71-1-11.53.89-17.17l.42,7q-.12,7.59-.23,15.18l-4,.47Z"/><path class="cls-5" d="M2,131.45c-2.27-1.36-2-3.71-2-5.77q-.12-18.8,0-37.6c0-1.93-.07-4,1.81-5.41l.5.45a8.6,8.6,0,0,0-1,4.29q.06,19.68,0,39.37a8.07,8.07,0,0,0,1,4.28Z"/><path class="cls-2" d="M228.25,117.05a7.16,7.16,0,0,1-4.75,4.1c-8.11,2.63-9.6,9.35-11.34,16.4-1.63,6.6-3,13.34-6,19.55,2.46-9.94,4.89-19.89,7.41-29.82a6.5,6.5,0,0,1,3.35-4.14Z"/><path class="cls-2" d="M36.37,72.89c-5.35,3.66-4,9.19-4,14.33a1.44,1.44,0,0,0,1.47,1.61c1,0,1.38-.82,1.41-1.7.06-2.14-.13-4.3.11-6.42.32-2.77,1-5.44,4.9-3.85-2.8.31-4,1.83-3.79,4.67.15,2.46,0,4.94-.06,7.41,0,1.57-1,1.94-2.29,1.87s-3,.52-3.13-1.41c-.2-4.59-.89-9.26.62-13.74C32.35,73.58,34.14,72.71,36.37,72.89Z"/><path class="cls-2" d="M240.26,78.73c4.16-2.65,8.88-2.4,13.48-2.39,1.78,0,1.75,2,1.46,3.15-2,8.32-4.06,16.68-11.08,22.55,4.06-6.61,7.71-13.39,9.75-21,.91-3.34.33-4.59-3.36-3.67A36.47,36.47,0,0,1,240.26,78.73Z"/><path class="cls-2" d="M189.3,163.42a33.06,33.06,0,0,1-.05,3.45c-.37,3.18.87,4.49,4.16,4.25,6.36-.47,12.73-.75,19.11-1,1.58-.06,3.31-.5,4.72.74-8.06.53-16.12,1.11-24.18,1.55-1.52.08-4.11,1.14-4.42-.6C188.16,169.13,186.31,166,189.3,163.42Z"/><path class="cls-2" d="M272.62,83.8c-7.68-2.76-9.28-4.9-9.34-12.48,0-5.85-.63-6.23-6.42-4-1.57.6-3.07,1.4-4.57-.07.45-.18.9-.4,1.37-.54,10.86-3.22,10.92-3.22,11.07,7.94A5.89,5.89,0,0,0,268,80.25C269.67,81.2,271.57,82,272.62,83.8Z"/><path class="cls-5" d="M50.41,131.14c3.57.48,4-1.56,4-4.49-.07-17.21,0-34.42,0-51.64,1.7,1.81,1.09,4.09,1.1,6.16.07,15.6-.07,31.21.11,46.8.06,4.28-1.41,5.39-5.23,3.94C50.39,131.65,50.4,131.4,50.41,131.14Z"/><path class="cls-2" d="M97.25,74a47.82,47.82,0,0,0-.93,12.23c.07,1.13-.06,2.61,1.55,2.56s1.41-1.53,1.44-2.66a44.88,44.88,0,0,1,.1-5.92c.42-2.6,1.4-4.91,4.86-3.36-2.86.31-3.89,2-3.73,4.76.13,2.14-.11,4.3-.08,6.46,0,1.43-.52,2.24-2,2.08-1.2-.13-3.37.62-3.29-1.1C95.39,84,92.81,78.48,97.25,74Z"/><path class="cls-2" d="M219.32,70.58c-2.22,6.88-1.77,7.38,5.13,7.6,4.59.15,9.26-1,13.77.69-5.72.93-11.48.55-17.22.45-1.44,0-4.18.75-4-1.41C217.22,75.48,215.11,71.85,219.32,70.58Z"/><path class="cls-2" d="M49.92,78c1.27.56,1.41,1.65,1.41,2.86q0,9.6,0,19.18c0,1.35,0,2.68-1.62,3.18C50.57,94.8,50.18,86.39,49.92,78Z"/><path class="cls-2" d="M50.28,43.21c2.93.41,3,2.73,3,4.83a24,24,0,0,0,1,6.76c.33,1.16-.37,2.92,1.58,3.09s1.2-2.12,2.36-2.74c-.12,1.57,2.75,3.88-1.1,4.52-2.62.44-3.82-.61-4.25-3.35C52.16,51.93,52,47.41,50.28,43.21Z"/><path class="cls-2" d="M50.41,131.14c0,.26,0,.51,0,.77-3.76,1.58-7.72,1.57-11.69,1.41-7-.27-8.42-1.87-8-9.24.3.13.71.17.89.4,1.66,2.13-.27,6.22,3.25,7.1a27.71,27.71,0,0,0,12.71,0C48.45,131.33,49.44,131.27,50.41,131.14Z"/><path class="cls-5" d="M98.6,49l-1.2.14,0-40.08,1.14,0c0,.55,0,1.1-.05,1.66,0,.91,0,1.83,0,2.74Q98.53,31.27,98.6,49Z"/><path class="cls-2" d="M272.34,107.28c.46-2.59,2.7-4.1,3.84-6.29,2.11-4,.31-8.09.37-12.13C280.24,95.5,278.85,101.6,272.34,107.28Z"/><path class="cls-5" d="M1.87,82.67c3.89-3,8.45-1.62,12.75-1.9,2-.12,3.8,1.08,5.77.37h0c-.3,2-1.5,1.31-2.88,1.26-5.05-.18-10.18-1.25-15.13.73Z"/><path class="cls-3" d="M228.89,127.94l10.21-7C238.47,126.08,236.58,127.39,228.89,127.94Z"/><path class="cls-2" d="M53.45,74.29c-3.32-.07-6.64-.08-10-.22C42,74,40,74.76,39.29,72.5c5-.15,10.06-1.54,14.64,1.66Z"/><path class="cls-2" d="M240.16,69.55c-5.13,2.91-10.5,1.63-15.84.89Z"/><path class="cls-2" d="M84.34,128.13c-2.88,2.84-8.7,2.78-12-.13A31.56,31.56,0,0,0,84.34,128.13Z"/><path class="cls-2" d="M37.41,55.26c-.47-3.41.42-6.7.94-10,.22-1.36.81-2,2.19-2C38.67,47,39.77,51.61,37.41,55.26Z"/><path class="cls-2" d="M49.45,103.51l-1.1,2.58,0,0c-3.3-.41-6.71.74-9.92-.76Z"/><path class="cls-4" d="M183.37,7.13c-.61-4.07-4.19-4.71-7.08-6.15,2.77-1.85,5.19-.19,7.14,1.28C184.85,3.35,184.75,5.51,183.37,7.13Z"/><path class="cls-2" d="M32.54,56.13c1.59,2.74,3.19,2.17,4.79,0,1.13,3.07-.45,3.67-3.1,3.63C31,59.71,32.05,57.82,32.54,56.13Z"/><path class="cls-5" d="M144.33,31.2h-9.77c3.36-2,8.38,1,10.49-4.12C145.49,28.57,146.43,30.15,144.33,31.2Z"/><path class="cls-2" d="M204.25,162c-3.64,3.59-7.81,2.16-11.93,1.26Z"/><path class="cls-2" d="M220.57,2.13c-3.11.08-7.07-1.1-6.41,4.48.1.87-.6.49-.77,0a4.91,4.91,0,0,1-.12-1.45C213.76.19,215.59-.58,220.57,2.13Z"/><path class="cls-2" d="M87.32,83.12c-3.16-2-6.67-.52-10-1-2-.28-4.28.86-6-1.06,4.6.1,9.19.17,13.79.31C86.22,81.4,88.11,80.66,87.32,83.12Z"/><path class="cls-2" d="M250.25,67.76c-2.19,2.92-4.93,2.95-7.95,1.5Z"/><path class="cls-2" d="M251.58,119c.3-1.75-3.25-3.18-.43-5.14.25,4.56,3.28,4.21,6.43,3.66C255.71,118.51,254.25,121.16,251.58,119Z"/><path class="cls-5" d="M84.27,86.11H73.53v-1H87.24C86.87,87.21,85.34,86,84.27,86.11Z"/><path class="cls-2" d="M36.35,105.82l-5.56,5.27C30.87,107.46,33,106,36.35,105.82Z"/><path class="cls-2" d="M71.36,81.08c-2.07-2.56-.35-6-2.11-8.69,1.84-.58,2.24.39,2.19,2C71.38,76.6,71.39,78.84,71.36,81.08Z"/><path class="cls-4" d="M162.59,44.11l-.42-7c.66-1.14-.7-2.94,1.19-3.68C162.92,37,164.13,40.65,162.59,44.11Z"/><path class="cls-2" d="M257.54,117.51c1.8-2.3,4-3.93,7-4A17.77,17.77,0,0,1,257.54,117.51Z"/><path class="cls-2" d="M240.11,106.91c-.07,2.63-1.4,4-4.06,4A12.48,12.48,0,0,1,240.11,106.91Z"/><path class="cls-4" d="M178.22,59.56l4.13.24C180.86,61.66,179.48,61.74,178.22,59.56Z"/><path class="cls-4" d="M174.29,33.47c2.78-.29,3.51,1.19,3.13,3.63C174.89,37.17,175.49,34.55,174.29,33.47Z"/><path class="cls-4" d="M158.4,59.76l4-.47C161.39,62.43,159.76,60,158.4,59.76Z"/><path class="cls-4" d="M164.28.84h-6A5.72,5.72,0,0,1,164.28.84Z"/><path class="cls-2" d="M221.28,6.12c-.16.46-.49,1.59-.84.65-.47-1.24,0-2.82,0-4.26C221.49,3.54,221.42,4.82,221.28,6.12Z"/><path class="cls-2" d="M268.75,110.58c-.24-2,1.06-2.37,2.65-2.37A4.62,4.62,0,0,1,268.75,110.58Z"/><path class="cls-2" d="M264.58,113.5c.11-2,1.24-2.46,3-2.06A4.59,4.59,0,0,1,264.58,113.5Z"/><path class="cls-2" d="M231.2,114.94a2.73,2.73,0,0,1-3,2.13A5,5,0,0,1,231.2,114.94Z"/><path class="cls-2" d="M244.16,102c.07,1.6-.48,2.72-2.23,2.91A5.53,5.53,0,0,1,244.16,102Z"/><path class="cls-4" d="M174.34.92l-4-.07A2.9,2.9,0,0,1,174.34.92Z"/><path class="cls-2" d="M276.6,88.88c-1.67-.4-1.91-1.73-2-3.14A3.84,3.84,0,0,1,276.6,88.88Z"/><path class="cls-2" d="M46.37,76.83c1.33-1.12,2.37-.9,3.1.69Z"/><path class="cls-2" d="M242,104.78a2.11,2.11,0,0,1-2,2.21A3.35,3.35,0,0,1,242,104.78Z"/><path class="cls-4" d="M183.42,37.12l-.08-3Q185.09,35.57,183.42,37.12Z"/><path class="cls-2" d="M236.13,110.87a2,2,0,0,1-2.21,1.95A3.34,3.34,0,0,1,236.13,110.87Z"/><path class="cls-2" d="M205.53,159.09c1.05,1.07.59,1.66-.64,2C205.1,160.42,205.31,159.75,205.53,159.09Z"/><path class="cls-2" d="M98.47,13.51c0-.91,0-1.83,0-2.74A2.54,2.54,0,0,1,98.47,13.51Z"/><path class="cls-2" d="M232.82,113.62c.13,1.32-.74,1.39-1.69,1.37Z"/><path class="cls-4" d="M183.3,59.07c0-.65.07-1.3.1-2C184.25,57.82,184.36,58.47,183.3,59.07Z"/><path class="cls-4" d="M183.41,44.12v-2C184.3,42.79,184.3,43.46,183.41,44.12Z"/><path class="cls-2" d="M267.53,111.45c.05-.72.4-1,1.13-.86Z"/><path class="cls-4" d="M196.28.87l-1,0C195.62.36,196,.38,196.28.87Z"/><path class="cls-4" d="M193.28.84l-1,.16C192.52.47,192.85.35,193.28.84Z"/><path class="cls-5" d="M53.45,74.29l.48-.13.52.91Z"/><path class="cls-2" d="M273.61,84.78c-.72,0-1.06-.31-1-1Z"/><path class="cls-2" d="M271.33,108.25l1.09-1.06Z"/><path class="cls-4" d="M183.35,25.13l.06-1a4,4,0,0,1,.3.74C183.72,24.92,183.48,25,183.35,25.13Z"/><path class="cls-2" d="M274.62,85.77c-.73,0-1.08-.3-1.05-1Z"/><path class="cls-2" d="M234,112.75c0,.72-.39,1-1.12.88Z"/><path class="cls-6" d="M196.68,108.48c.38-.35.62-1.28,1.27-.65.26.25-.08,1.12-.14,1.71Z"/><path class="cls-2" d="M270.09,100a10.59,10.59,0,0,0,1-7.87C275.28,95.37,272.81,97.72,270.09,100Z"/><path class="cls-2" d="M262.68,86.39a6.73,6.73,0,0,1-2.06,4C260.33,88.53,260.67,87,262.68,86.39Z"/><path class="cls-2" d="M265.74,86.64a3.45,3.45,0,0,0-3.23-.15C263.67,84.73,264.77,84.15,265.74,86.64Z"/><path class="cls-2" d="M260.66,90.35a4.32,4.32,0,0,1-1.29,3C259.37,92.18,258.87,90.77,260.66,90.35Z"/><path class="cls-2" d="M271.16,92.22c-.42-.62-.84-1.25-1.27-1.87C271.07,90.46,271.2,91.28,271.16,92.22Z"/><path class="cls-2" d="M268.26,88.8l-1.42-1.27C267.87,87.32,268.15,88,268.26,88.8Z"/><path class="cls-2" d="M270,90.43l-1.22-1.15A1.18,1.18,0,0,1,270,90.43Z"/><path class="cls-2" d="M269.21,101.09l1-1.14Z"/><path class="cls-2" d="M266.84,87.51l-1-.8C266.61,86.45,266.9,86.77,266.84,87.51Z"/><path class="cls-3" d="M217.71,13.24c1.26,7.74,2.93,15.44,3.62,23.23.32,3.67-3.46,1.55-5.33,1.89-1.28.23-3.64.89-3.12-2.2,1.29-7.6,2.48-15.23,3.7-22.85Z"/><path class="cls-3" d="M177.36,26.16c-4.37,5.29-9.73,2.91-14.9,1.91q0-11-.05-21.9l.87-.67c2.47.12,4.94.2,7.4.38s5.43-.69,7.06,2.3l-.12,16.92C177.54,25.45,177.45,25.8,177.36,26.16Z"/><path class="cls-5" d="M177.62,25.1l.12-16.92h.32l.31,0a32.78,32.78,0,0,1,0,17A2.8,2.8,0,0,0,177.62,25.1Z"/><path class="cls-2" d="M162.41,6.17q0,11,.05,21.9A43.67,43.67,0,0,1,162.41,6.17Z"/><path class="cls-2" d="M178.37,8.13l-.31,0h-.32c-1.63-3-4.53-2.12-7.06-2.3s-4.93-.26-7.4-.38C168.52,3.78,176.62,5.19,178.37,8.13Z"/><path class="cls-2" d="M177.62,25.1a2.8,2.8,0,0,1,.71,0c-.32.34-.65.68-1,1C177.45,25.8,177.54,25.45,177.62,25.1Z"/><path class="cls-3" d="M114.28,117.19c0,1.65,0,3.31,0,5-.11,5.48-2.39,7.68-7.9,7.68-4.69,0-6.43-2.09-6.43-7.76,0-2.64.15-5.3,0-7.93-.17-3.24,1.13-4.72,4.43-5.23C114.28,107.37,114.27,107.26,114.28,117.19Z"/><path class="cls-5" d="M118.33,78.09c1,.88.87,2.07.87,3.22q0,23.28,0,46.57c0,1.14.17,2.34-.89,3.19Z"/><path class="cls-5" d="M99.14,112.41v11.33l-.47,0V112.25Z"/><path class="cls-5" d="M118.29,131.09c-1,1.31-2.32.88-3.59.7C115.7,130.57,117.08,131.28,118.29,131.09Z"/><path class="cls-1" d="M97.37,9.09l0,40.08a15,15,0,0,0,1.15,7.92c-3.1.41-3.26-1.3-3.26-3.19q0-23.41,0-46.84c0-2.94,1.33-4.83,4.38-4.9,4.92-.11,9.84,0,15.36,0-1.53,2.48-3.08,2-4.66,1.58a18.74,18.74,0,0,0-8.84-.14C98.42,4.16,96.82,5.79,97.37,9.09Z"/><path class="cls-1" d="M115.28,52.48c0-4.66-.25-9.33.09-14,.22-3-.2-4.89-4.22-4.82,4.88-2.49,6.07-2,6.15,2.11.11,5.55,0,11.11,0,16.66Z"/><path class="cls-3" d="M39.33,108.94l2-.31,8.9-.4c.06.63.12,1.25.17,1.87q-.24,8.4-.49,16.79l.09-.12c-.3.39-.6.79-.91,1.18l.12-.08-1.59,1-.2-.15c-4.1.07-8.28.66-12-1.74,0-.29,0-.57-.06-.85,1.29-3.9.45-7.91.57-11.86C36,111.64,36.53,109.64,39.33,108.94Z"/><path class="cls-2" d="M39.33,108.94c-2.8.7-3.32,2.7-3.41,5.29-.12,4,.72,8-.57,11.86l-.23-.29q.09-7.29.16-14.59C35.82,109,36.89,107.74,39.33,108.94Z"/><path class="cls-2" d="M49.93,126.89q.24-8.39.49-16.79C51.56,115.74,52.54,121.37,49.93,126.89Z"/><path class="cls-2" d="M35.41,126.94c3.75,2.4,7.93,1.81,12,1.74C42.84,131.27,38,130.56,35.41,126.94Z"/><path class="cls-2" d="M50.25,108.23l-8.9.4c1.43-3.3,5.23,0,7-2.51l0,0A1.81,1.81,0,0,1,50.25,108.23Z"/><path class="cls-5" d="M35.28,111.21q-.08,7.29-.16,14.59A25.87,25.87,0,0,1,35.28,111.21Z"/><path class="cls-2" d="M49.11,128c.31-.39.61-.79.91-1.18A1,1,0,0,1,49.11,128Z"/><path class="cls-2" d="M47.64,128.83l1.59-1A1.42,1.42,0,0,1,47.64,128.83Z"/><path class="cls-5" d="M67.29,127.08c-1.13-1-.86-2.42-.85-3.71q0-17.52.13-35c1.55,3.33.65,6.85.7,10.27C67.4,108.1,67.3,117.59,67.29,127.08Z"/><path class="cls-3" d="M40.61,37.85a236.17,236.17,0,0,0,4-25.51l1.65.93c.6,8.36,2.51,16.51,3.82,24.76l-2.94.74-6.58-.89Z"/><path class="cls-2" d="M50.1,38c-1.31-8.25-3.22-16.4-3.82-24.76,1.64,1.93,1.51,4.41,2.09,6.67,1.19,4.65,1,9.55,2.71,14.12C51.56,35.37,51.85,37.07,50.1,38Z"/><path class="cls-2" d="M40.58,37.88l6.58.89C44.84,39.39,42.19,42.46,40.58,37.88Z"/><path class="cls-1" d="M67.3,2.83c2.58,1.43,2,3.3,2,5,.05,14.3.15,28.6,0,42.9-.06,4.16,1.37,5.76,5.5,5.44,3.26-.25,6.55,0,10.44,0-1.52,2.83-3.51,2-5,2-12.87.16-12.87.13-12.87-12.51V2.83Z"/><path class="cls-1" d="M41.17,21.65C39.8,20,40.38,18.86,41.12,17,42.78,19,42.37,20.21,41.17,21.65Z"/><path class="cls-1" d="M196.27,30.37c0,7.8,0,15.61-.05,23.41,0,1.43.95,3.94-1.56,3.93-2.06,0-1.35-2.32-1.35-3.66q-.08-23.91,0-47.82c0-1.34-.71-3.65,1.33-3.67,2.54,0,1.56,2.47,1.58,3.9C196.32,14.43,196.27,22.4,196.27,30.37Z"/><path class="cls-1" d="M2.37,83.12c5-2,10.08-.91,15.13-.73,1.38,0,2.58.75,2.88-1.26,1.36-1.16.79-2.76,1-4.19s-.63-3.59,1.6-3.44c2,.13,1.17,2.34,1.38,3.7a2.68,2.68,0,0,1,0,.49c0,16.27-.08,32.54.06,48.8,0,3.33-.85,4.41-4.37,4.79-5.94.63-11.78,1.57-17.65-.22a8.07,8.07,0,0,1-1-4.28q0-19.69,0-39.37A8.6,8.6,0,0,1,2.37,83.12Zm17.91,4.09c-1.93-4-11-4.56-14.88-1l.13-.07c-2,1.23-2.15,3.19-2.15,5.24q0,16,0,32c0,1.64-.29,3.51,2.2,3.68,4.83,4,9.63,3.63,14.41-.08,1.61-.68,1.33-2.13,1.33-3.41q0-16.68,0-33.35c0-1.16.09-2.35-1.1-3.09Z"/><path class="cls-3" d="M20,127c-4.78,3.71-9.58,4.1-14.41.08-.53-13.63-.44-27.26,0-40.89l-.13.07c5-1.08,10.12-2.57,14.88,1l-.05-.07Z"/><path class="cls-2" d="M5.53,86.18c-.39,13.63-.48,27.26,0,40.89-2.49-.17-2.19-2-2.2-3.68q0-16,0-32C3.38,89.37,3.56,87.41,5.53,86.18Z"/><path class="cls-5" d="M20,127l.24-39.85c1.19.74,1.1,1.93,1.1,3.09q0,16.68,0,33.35C21.32,124.86,21.6,126.31,20,127Z"/><path class="cls-5" d="M20.28,87.21c-4.76-3.53-9.83-2-14.88-1C9.24,82.65,18.35,83.23,20.28,87.21Z"/></g></g></svg>