<svg xmlns="http://www.w3.org/2000/svg" xmlns:svgjs="http://svgjs.com/svgjs" xmlns:xlink="http://www.w3.org/1999/xlink" width="288" height="288"><svg xmlns="http://www.w3.org/2000/svg" width="288" height="288" enable-background="new 0 0 55 55" viewBox="0 0 55 55"><path fill="#fff" d="M49.927,34.38l-4.79-10.527v-0.915c0-5.387-2.095-10.44-5.897-14.228c-3.79-3.805-8.843-5.9-14.23-5.9
			c-5.386,0-10.44,2.095-14.228,5.898c-3.804,3.79-5.899,8.843-5.899,14.229c0,5.813,2.511,11.342,6.889,15.169
			c3.719,3.251,5.852,8.11,5.852,13.333c0,0.414,0.336,0.75,0.75,0.75h19.79c0.414,0,0.75-0.336,0.75-0.75v-7.708h3.281
			c1.623,0,2.943-1.32,2.943-2.943v-3.454h2.889C49.549,37.333,50.556,35.759,49.927,34.38z M48.027,35.833h-3.639
			c-0.414,0-0.75,0.336-0.75,0.75v4.204c0,0.796-0.647,1.443-1.443,1.443h-4.031c-0.414,0-0.75,0.336-0.75,0.75v7.708H19.11
			c-0.196-5.369-2.486-10.333-6.351-13.711c-4.052-3.542-6.376-8.66-6.376-14.04c0-4.984,1.938-9.661,5.46-13.169
			c3.507-3.52,8.183-5.458,13.167-5.458c4.985,0,9.661,1.938,13.169,5.46c3.52,3.506,5.458,8.182,5.458,13.167v1.078
			c0,0.107,0.023,0.213,0.067,0.311l4.857,10.675C48.74,35.39,48.455,35.833,48.027,35.833z" class="color020202 svgShape"/><path fill="#fff" d="M35.083 20.827c0-5.579-4.538-10.117-10.117-10.117-5.573 0-10.106 4.539-10.106 10.117 0 3.691 2.06 7.128 5.287 8.885V31h-.893c-.414 0-.75.336-.75.75s.336.75.75.75h.893v.956h-.893c-.414 0-.75.336-.75.75s.336.75.75.75h1.127c.228.743.613 1.43 1.175 1.992.9.915 2.111 1.418 3.41 1.418 2.166 0 3.982-1.442 4.593-3.41h1.128c.414 0 .75-.336.75-.75s-.336-.75-.75-.75h-.891V32.5h.891c.414 0 .75-.336.75-.75S31.102 31 30.688 31h-.891v-1.298C33.07 27.929 35.083 24.571 35.083 20.827zM16.36 20.827c0-4.751 3.861-8.617 8.606-8.617 4.751 0 8.617 3.866 8.617 8.617 0 3.323-1.863 6.289-4.863 7.741-.021.01-.037.027-.057.039h-7.399c-.014-.008-.026-.02-.041-.027C18.269 27.149 16.36 24.106 16.36 20.827zM24.966 36.865c-.893 0-1.725-.345-2.345-.975-.275-.275-.484-.594-.646-.935h5.991C27.431 36.08 26.293 36.865 24.966 36.865zM28.297 33.455h-6.65V32.5h6.65V33.455zM21.647 31v-.893h6.65V31H21.647zM24.972 9.455c.414 0 .75-.336.75-.75v-.8c0-.414-.336-.75-.75-.75s-.75.336-.75.75v.8C24.222 9.119 24.558 9.455 24.972 9.455zM18.391 10.669c.207.359.667.481 1.024.274.359-.207.481-.666.274-1.024l-.4-.693c-.207-.359-.666-.482-1.024-.274-.359.207-.481.666-.274 1.024L18.391 10.669zM13.631 14.886l.693.4c.358.207.818.085 1.024-.274.207-.359.084-.817-.274-1.024l-.693-.4c-.359-.208-.817-.085-1.024.274C13.149 14.22 13.272 14.679 13.631 14.886zM13.859 20.568c0-.414-.336-.75-.75-.75h-.8c-.414 0-.75.336-.75.75s.336.75.75.75h.8C13.523 21.318 13.859 20.982 13.859 20.568zM14.323 25.85l-.693.4c-.358.208-.481.666-.274 1.025.209.361.67.479 1.025.274l.693-.4c.358-.208.481-.666.274-1.025C15.14 25.765 14.682 25.642 14.323 25.85zM36.314 26.25l-.693-.4c-.359-.208-.817-.084-1.025.274-.207.359-.084.817.274 1.025l.693.4c.36.207.818.084 1.025-.274C36.795 26.916 36.672 26.458 36.314 26.25zM37.635 19.818h-.8c-.414 0-.75.336-.75.75s.336.75.75.75h.8c.414 0 .75-.336.75-.75S38.049 19.818 37.635 19.818zM35.62 15.286l.693-.4c.359-.207.481-.666.274-1.024-.207-.359-.666-.482-1.024-.274l-.693.4c-.359.207-.481.666-.274 1.024C34.803 15.371 35.263 15.492 35.62 15.286zM30.528 10.944c.36.207.818.084 1.025-.274l.4-.693c.207-.359.084-.817-.274-1.025-.36-.208-.817-.085-1.025.274l-.4.693C30.047 10.278 30.169 10.736 30.528 10.944z" class="color020202 svgShape"/><path fill="#fff" d="M24.97,26.449c-3.108,0-5.636-2.528-5.636-5.636c0-3.105,2.528-5.631,5.636-5.631s5.636,2.526,5.636,5.631
				C30.607,23.921,28.078,26.449,24.97,26.449z M24.97,16.683c-2.281,0-4.136,1.853-4.136,4.131c0,2.28,1.855,4.136,4.136,4.136
				s4.136-1.855,4.136-4.136C29.107,18.536,27.251,16.683,24.97,16.683z" class="color020202 svgShape"/><path fill="#fff" d="M27.121,20.538L24.5,22.332c-0.129,0.088-0.277,0.131-0.423,0.131c-0.238,0-0.473-0.113-0.618-0.324
			l-0.833-1.209c-0.235-0.341-0.149-0.808,0.192-1.043c0.341-0.234,0.809-0.149,1.043,0.192l0.409,0.594l2.005-1.372
			c0.342-0.233,0.808-0.146,1.042,0.196C27.551,19.837,27.464,20.304,27.121,20.538z" class="color020202 svgShape"/></svg></svg>