<svg xmlns="http://www.w3.org/2000/svg" width="48" height="48" fill="none" viewBox="0 0 48 48"><path fill="#333" fill-rule="evenodd" d="M17 24C20.8675 24 24 20.8675 24 17 24 13.1325 20.8675 10 17 10 13.1325 10 10 13.1325 10 17 10 20.8675 13.1325 24 17 24zM22 17C22 19.7629 19.7629 22 17 22 14.2371 22 12 19.7629 12 17 12 14.2371 14.2371 12 17 12 19.7629 12 22 14.2371 22 17zM4 38V32.4C4 28.144 12.6612 26 17 26 19.8862 26 24.6851 26.9487 27.5749 28.8368 29.6346 28.2798 31.8936 28 33.5 28 35.3579 28 37.851 28.3742 39.9092 29.1307 40.9364 29.5084 41.9189 30.004 42.6622 30.6463 43.4108 31.2931 44 32.1676 44 33.2667V38H4zM6 32.4C6 32.0826 6.14556 31.6486 6.76618 31.0846 7.39908 30.5095 8.37322 29.9511 9.60682 29.4645 12.076 28.4906 15.0766 28 17 28 18.9234 28 21.924 28.4906 24.3932 29.4645 25.6268 29.9511 26.6009 30.5095 27.2338 31.0846 27.8544 31.6486 28 32.0826 28 32.4V36H6V32.4zM29.3532 30.4692C30.8657 30.1565 32.3834 30 33.5 30 35.1465 30 37.4034 30.3405 39.2191 31.0079 40.1288 31.3423 40.8643 31.736 41.3546 32.1597 41.8398 32.5789 42 32.947 42 33.2667V36H30V32.4C30 31.6991 29.7651 31.0554 29.3532 30.4692zM39 20.5C39 23.5387 36.5387 26 33.5 26 30.4613 26 28 23.5387 28 20.5 28 17.4612 30.4613 15 33.5 15 36.5387 15 39 17.4612 39 20.5zM33.5 24C35.4342 24 37 22.4342 37 20.5 37 18.5658 35.4342 17 33.5 17 31.5658 17 30 18.5658 30 20.5 30 22.4342 31.5658 24 33.5 24z" clip-rule="evenodd"/></svg>