<svg width="160" height="137" viewBox="0 0 160 137" fill="none" xmlns="http://www.w3.org/2000/svg">
<path d="M48.5783 0.568465C49.09 0.37436 49.6045 0.184852 50.1217 0H109.878C110.396 0.184852 110.91 0.37436 111.422 0.568465H48.5783Z" fill="#122130" fill-opacity="0.2"/>
<path d="M36.5537 6.25311C36.8871 6.06148 37.2221 5.87198 37.5589 5.68465H122.441C122.778 5.87198 123.113 6.06148 123.446 6.25311H36.5537Z" fill="#122130" fill-opacity="0.2"/>
<path d="M27.9777 11.9378C28.2289 11.7469 28.4814 11.5574 28.7352 11.3693H131.265C131.519 11.5574 131.771 11.7469 132.022 11.9378H27.9777Z" fill="#122130" fill-opacity="0.2"/>
<path d="M21.3131 17.6224C21.5121 17.4319 21.7124 17.2425 21.9137 17.0539H138.086C138.288 17.2425 138.488 17.4319 138.687 17.6224H21.3131Z" fill="#122130" fill-opacity="0.2"/>
<path d="M15.962 23.3071C16.1229 23.1168 16.2849 22.9273 16.448 22.7386H143.552C143.715 22.9273 143.877 23.1168 144.038 23.3071H15.962Z" fill="#122130" fill-opacity="0.2"/>
<path d="M11.6188 28.9917C11.7494 28.8016 11.881 28.6121 12.0135 28.4232H147.986C148.119 28.6121 148.251 28.8016 148.381 28.9917H11.6188Z" fill="#122130" fill-opacity="0.2"/>
<path d="M8.10402 34.6763C8.20904 34.4864 8.31498 34.2969 8.42184 34.1079H151.578C151.685 34.2969 151.791 34.4864 151.896 34.6763H8.10402Z" fill="#122130" fill-opacity="0.2"/>
<path d="M5.30321 40.361C5.38577 40.1711 5.46922 39.9816 5.55356 39.7925H154.446C154.531 39.9816 154.614 40.1711 154.697 40.361H5.30321Z" fill="#122130" fill-opacity="0.2"/>
<path d="M3.13973 46.0456C3.20197 45.8558 3.26508 45.6663 3.32905 45.4772H156.671C156.735 45.6663 156.798 45.8558 156.86 46.0456H3.13973Z" fill="#122130" fill-opacity="0.2"/>
<path d="M1.56089 51.7303C1.60428 51.5405 1.64852 51.351 1.69361 51.1618H158.306C158.351 51.351 158.396 51.5405 158.439 51.7303H1.56089Z" fill="#122130" fill-opacity="0.2"/>
<path d="M0.530163 57.4149C0.555719 57.2252 0.582118 57.0357 0.609356 56.8465H159.391C159.418 57.0357 159.444 57.2252 159.47 57.4149H0.530163Z" fill="#122130" fill-opacity="0.2"/>
<path d="M0.022658 63.0996C0.0310628 62.9099 0.0403051 62.7204 0.0503816 62.5311H159.95C159.96 62.7204 159.969 62.9099 159.977 63.0996H0.022658Z" fill="#122130" fill-opacity="0.2"/>
<path d="M0.022658 68.7842C0.0142701 68.5949 0.00671642 68.4054 0 68.2158H160C159.993 68.4054 159.986 68.5949 159.977 68.7842H0.022658Z" fill="#122130" fill-opacity="0.2"/>
<path d="M0.530162 74.4689C0.504667 74.2796 0.48001 74.0901 0.456194 73.9004H159.544C159.52 74.0901 159.495 74.2796 159.47 74.4689H0.530162Z" fill="#122130" fill-opacity="0.2"/>
<path d="M1.56089 80.1535C1.51763 79.9643 1.47521 79.7748 1.43364 79.5851H158.566C158.525 79.7748 158.482 79.9643 158.439 80.1535H1.56089Z" fill="#122130" fill-opacity="0.2"/>
<path d="M3.13973 85.8382C3.07771 85.649 3.01655 85.4595 2.95625 85.2697H157.044C156.983 85.4595 156.922 85.649 156.86 85.8382H3.13973Z" fill="#122130" fill-opacity="0.2"/>
<path d="M5.30321 91.5228C5.22099 91.3337 5.13965 91.1442 5.0592 90.9544H154.941C154.86 91.1442 154.779 91.3337 154.697 91.5228H5.30321Z" fill="#122130" fill-opacity="0.2"/>
<path d="M8.10402 97.2075C7.99953 97.0185 7.89596 96.829 7.79331 96.639H152.207C152.104 96.829 152 97.0185 151.896 97.2075H8.10402Z" fill="#122130" fill-opacity="0.2"/>
<path d="M11.6188 102.892C11.489 102.703 11.3602 102.514 11.2323 102.324H148.768C148.64 102.514 148.511 102.703 148.381 102.892H11.6188Z" fill="#122130" fill-opacity="0.2"/>
<path d="M15.962 108.577C15.8023 108.388 15.6436 108.199 15.486 108.008H144.514C144.356 108.199 144.198 108.388 144.038 108.577H15.962Z" fill="#122130" fill-opacity="0.2"/>
<path d="M21.3131 114.261C21.116 114.073 20.9201 113.883 20.7253 113.693H139.275C139.08 113.883 138.884 114.073 138.687 114.261H21.3131Z" fill="#122130" fill-opacity="0.2"/>
<path d="M27.9777 119.946C27.7301 119.758 27.4838 119.568 27.2388 119.378H132.761C132.516 119.568 132.27 119.758 132.022 119.946H27.9777Z" fill="#122130" fill-opacity="0.2"/>
<path d="M36.5537 125.631C36.2276 125.443 35.9032 125.254 35.5804 125.062H124.42C124.097 125.254 123.772 125.443 123.446 125.631H36.5537Z" fill="#122130" fill-opacity="0.2"/>
<path d="M48.5783 131.315C48.0898 131.13 47.6037 130.941 47.1202 130.747H112.88C112.396 130.941 111.91 131.13 111.422 131.315H48.5783Z" fill="#122130" fill-opacity="0.2"/>
<path d="M90.1726 136.432C86.8413 136.807 83.4461 137 80 137C76.5539 137 73.1587 136.807 69.8274 136.432H90.1726Z" fill="#122130" fill-opacity="0.2"/>
</svg>
