<svg xmlns="http://www.w3.org/2000/svg" width="32" height="32"><path fill="#263238" d="M28 28h-9.5c-.512 0-1.044-.253-1.608-.521-.496-.236-1.008-.479-1.392-.479h-2a.5.5 0 0 1 0-1h2c.609 0 1.225.293 1.821.576.439.208.892.424 1.179.424H28a1.001 1.001 0 0 0 0-2 .5.5 0 0 1 0-1h.5a1.001 1.001 0 0 0 0-2 .5.5 0 0 1 0-1h.5a1.001 1.001 0 0 0 0-2h-.5a.5.5 0 0 1 0-1 1.001 1.001 0 0 0 0-2h-9.504a.5.5 0 0 1-.485-.621c.004-.02.485-1.975.485-4.313 0-2.601-1.039-2.995-1.997-3.055V11.5a.502.502 0 0 1-.053.224l-2.075 4.149a.5.5 0 0 1-.895-.447L16 11.382V7.5a.5.5 0 0 1 .5-.5c1.046 0 3.497 0 3.497 4.065 0 1.679-.229 3.144-.382 3.935H28.5c1.103 0 2 .897 2 2 0 .489-.177.938-.47 1.286a2 2 0 0 1 0 3.428 2 2 0 0 1-.5 3c.293.348.47.797.47 1.286 0 1.103-.897 2-2 2z"/><path fill="#263238" d="M13.551 28H10v-1h3v-9h-3v-1h3.551c.277 0 .449.207.449.482v10c0 .278-.172.518-.449.518z"/><path fill="#263238" d="M1.551 30a.5.5 0 0 1 0-1H10V18H1.551a.5.5 0 0 1 0-1h9c.277 0 .449.207.449.482v12c0 .278-.172.518-.449.518h-9z"/><g fill="#263238"><path d="M29 22h-5c-1.103 0-2-.897-2-2s.897-2 2-2h5c1.103 0 2 .897 2 2s-.897 2-2 2zm-5-3a1.001 1.001 0 0 0 0 2h5a1.001 1.001 0 0 0 0-2h-5zm4 9h-3c-1.103 0-2-.897-2-2s.897-2 2-2h3c1.103 0 2 .897 2 2s-.897 2-2 2zm-3-3a1.001 1.001 0 0 0 0 2h3a1.001 1.001 0 0 0 0-2h-3z"/><path d="M28.5 25h-4c-1.103 0-2-.897-2-2s.897-2 2-2h4c1.103 0 2 .897 2 2s-.897 2-2 2zm-4-3a1.001 1.001 0 0 0 0 2h4a1.001 1.001 0 0 0 0-2h-4zm4-3h-4c-1.103 0-2-.897-2-2s.897-2 2-2h4c1.103 0 2 .897 2 2s-.897 2-2 2zm-4-3a1.001 1.001 0 0 0 0 2h4a1.001 1.001 0 0 0 0-2h-4zm-6.892 7.054a.5.5 0 0 1-.113-.988c1.16-.271 2.003-1.266 2.256-2.661.256-1.414-.183-2.857-1.044-3.432a.5.5 0 1 1 .554-.832c1.216.811 1.808 2.596 1.474 4.442-.326 1.8-1.452 3.092-3.012 3.457a.458.458 0 0 1-.115.014z"/></g><path fill="#263238" d="M20.145 5.859a.498.498 0 0 0 .405-.206l1.176-1.618a.499.499 0 1 0-.808-.588l-1.176 1.618a.499.499 0 0 0 .403.794zm1.159 1.905a.5.5 0 0 0 .63.322l1.902-.618a.499.499 0 1 0-.309-.951l-1.902.618a.499.499 0 0 0-.321.629zm-7.608 2.472a.498.498 0 0 0-.63-.321l-1.902.618a.499.499 0 0 0 .155.976.515.515 0 0 0 .154-.024l1.902-.618a.502.502 0 0 0 .321-.631zm10.14.297-1.902-.618a.5.5 0 1 0-.309.951l1.902.618a.5.5 0 0 0 .309-.951zM11.164 7.467l1.902.618a.5.5 0 0 0 .309-.952l-1.902-.618a.5.5 0 0 0-.309.952zm2.919-4.02a.5.5 0 1 0-.808.588l1.176 1.618a.498.498 0 0 0 .698.11.5.5 0 0 0 .11-.698l-1.176-1.618zM17.5 2a.5.5 0 0 0-.5.5v2a.5.5 0 0 0 1 0v-2a.5.5 0 0 0-.5-.5z"/></svg>