<?xml version="1.0" encoding="UTF-8" standalone="no"?>
<svg
   xmlns:dc="http://purl.org/dc/elements/1.1/"
   xmlns:cc="http://creativecommons.org/ns#"
   xmlns:rdf="http://www.w3.org/1999/02/22-rdf-syntax-ns#"
   xmlns:svg="http://www.w3.org/2000/svg"
   xmlns="http://www.w3.org/2000/svg"
   xmlns:sodipodi="http://sodipodi.sourceforge.net/DTD/sodipodi-0.dtd"
   xmlns:inkscape="http://www.inkscape.org/namespaces/inkscape"
   aria-labelledby="justworks-tlc-logo--aria"
   width="1000"
   height="208.97777"
   viewBox="0 0 1000 208.97777"
   version="1.1"
   id="svg57"
   sodipodi:docname="A.svg"
   style="fill:none"
   inkscape:version="0.92.4 (5da689c313, 2019-01-14)">
  <metadata
     id="metadata63">
    <rdf:RDF>
      <cc:Work
         rdf:about="">
        <dc:format>image/svg+xml</dc:format>
        <dc:type
           rdf:resource="http://purl.org/dc/dcmitype/StillImage" />
        <dc:title>Justworks Logo</dc:title>
      </cc:Work>
    </rdf:RDF>
  </metadata>
  <defs
     id="defs61">
    <clipPath
       clipPathUnits="userSpaceOnUse"
       id="clipPath155">
      <path
         d="m 429.2351,33.69329 h 114.0193 v 9.5799 H 429.2351 Z"
         id="path153"
         inkscape:connector-curvature="0" />
    </clipPath>
  </defs>
  <sodipodi:namedview
     pagecolor="#ffffff"
     bordercolor="#111111"
     borderopacity="1"
     objecttolerance="10"
     gridtolerance="10"
     guidetolerance="10"
     inkscape:pageopacity="0"
     inkscape:pageshadow="2"
     inkscape:window-width="1920"
     inkscape:window-height="1017"
     id="namedview59"
     showgrid="false"
     fit-margin-top="0"
     fit-margin-left="0"
     fit-margin-right="0"
     fit-margin-bottom="0"
     inkscape:zoom="0.64182692"
     inkscape:cx="512.94615"
     inkscape:cy="-104.9322"
     inkscape:window-x="1912"
     inkscape:window-y="-8"
     inkscape:window-maximized="1"
     inkscape:current-layer="svg57" />
  <title
     id="justworks-tlc-logo--aria">Justworks Logo</title>
  <path
     inkscape:connector-curvature="0"
     style="fill:#6B7280;fill-opacity:1;fill-rule:evenodd;stroke:none;stroke-width:4.75290155"
     d="m 279.26667,37.683543 v 51.52318 c -2.2749,-2.15114 -4.7355,-4.06304 -7.38109,-5.73329 -2.64547,-1.6702 -5.43253,-3.06913 -8.34936,-4.1959 -2.91697,-1.12682 -5.90786,-1.95627 -8.98642,-2.49717 -3.07878,-0.54108 -6.18439,-0.77888 -9.30914,-0.71347 -3.12475,0.0652 -6.21323,0.42705 -9.2667,1.09568 -3.05364,0.66937 -6.01679,1.6318 -8.88448,2.87939 -2.86756,1.24759 -5.58843,2.75619 -8.16249,4.53567 -2.5741,1.77932 -4.95103,3.79451 -7.13478,6.03906 -18.35975,18.856297 -18.35988,49.017347 0,67.873647 2.18357,2.24455 4.56068,4.25948 7.13478,6.03905 2.5738,1.77949 5.2948,3.29631 8.16249,4.5442 2.86769,1.24798 5.83097,2.20163 8.88448,2.87087 3.05347,0.6691 6.14195,1.0388 9.2667,1.1042 3.12475,0.0652 6.23049,-0.17265 9.30914,-0.71346 3.07882,-0.54065 6.06958,-1.3704 8.98642,-2.49717 2.91696,-1.12652 5.70376,-2.5257 8.34936,-4.19595 2.64559,-1.67033 5.10606,-3.58224 7.38109,-5.73329 v 10.67666 h 15.22931 V 37.683543 Z m 141.0474,12.94453 v 25.7191 h -16.42692 v 14.89805 h 16.42692 l 0.0509,57.834037 c 0,2.84838 0.54604,5.58969 1.63081,8.22194 1.08476,2.63225 2.62433,4.95738 4.62908,6.9734 2.00493,2.01645 4.31902,3.56911 6.93944,4.66309 2.62041,1.09394 5.35003,1.64776 8.18797,1.64776 h 17.718 v -15.29727 h -17.72652 c -3.41112,0 -6.17496,-2.78067 -6.17496,-6.20892 V 91.245223 h 27.02718 v -14.84708 h -27.03566 v -25.77007 z m -72.51973,25.4303 c -3.12501,0.0652 -6.21279,0.4354 -9.2667,1.1042 -3.05378,0.66911 -6.01662,1.62302 -8.88448,2.87091 -2.86782,1.24772 -5.5883,2.76441 -8.16249,4.54415 -2.5741,1.77945 -4.95103,3.79395 -7.13478,6.03906 -18.36001,18.856297 -18.35988,49.017347 0,67.873647 2.18362,2.24481 4.56068,4.25917 7.13478,6.03905 2.57406,1.77949 5.29467,3.29592 8.16249,4.5442 2.86786,1.24785 5.83057,2.20124 8.88448,2.87087 3.05391,0.66923 6.14169,1.0388 9.2667,1.1042 3.12514,0.0652 6.2217,-0.17265 9.30066,-0.71346 3.07908,-0.54082 6.07763,-1.3704 8.9949,-2.49717 2.91709,-1.12682 5.7035,-2.5257 8.34936,-4.19595 2.64559,-1.67064 5.10593,-3.58168 7.38109,-5.73329 v 10.67666 h 15.22083 V 76.542523 l -15.22083,0.0261 v 12.63872 c -2.27503,-2.15157 -4.73532,-4.06252 -7.38109,-5.73329 -2.6456,-1.6709 -5.43227,-3.06926 -8.34936,-4.1959 -2.91727,-1.12708 -5.9076,-1.96475 -8.98642,-2.50566 -3.07896,-0.54081 -6.18413,-0.77891 -9.30914,-0.7135 z m 160.55758,0 c -3.12488,0.0652 -6.21306,0.4354 -9.2667,1.1042 -3.05347,0.66937 -6.01688,1.63167 -8.88448,2.87939 -2.86769,1.24759 -5.58857,2.75619 -8.16249,4.53567 -2.57406,1.77958 -4.95116,3.79451 -7.13479,6.03906 -18.35987,18.856297 -18.35987,49.017347 0,67.873647 2.18345,2.24455 4.56099,4.25961 7.13479,6.03905 2.57379,1.77962 5.29493,3.29644 8.16249,4.5442 2.8676,1.24798 5.83114,2.2015 8.88448,2.87087 3.05351,0.66936 6.14195,1.0388 9.2667,1.1042 3.12487,0.0652 6.22201,-0.17221 9.30066,-0.71346 3.07882,-0.54052 6.07806,-1.37901 8.99489,-2.5057 2.91714,-1.12621 5.70377,-2.51717 8.34936,-4.18742 2.64564,-1.66994 5.10607,-3.58198 7.3811,-5.73329 v 10.67666 h 15.22931 V 76.542523 l -15.22931,0.0174 v 12.6472 c -2.27473,-2.15157 -4.73546,-4.06304 -7.3811,-5.73329 -2.64559,-1.67033 -5.43222,-3.06913 -8.34936,-4.1959 -2.91683,-1.12682 -5.90772,-1.96488 -8.98637,-2.50565 -3.07869,-0.54121 -6.18444,-0.77892 -9.30918,-0.71351 z m 193.90413,0 c -3.125,0.0652 -6.2214,0.43527 -9.2752,1.1042 -3.0539,0.66924 -6.0082,1.62332 -8.876,2.87091 -2.8678,1.24798 -5.5883,2.76467 -8.1625,4.54415 -2.5739,1.77988 -4.9594,3.79451 -7.1433,6.03906 -18.3598,18.856297 -18.3598,49.017347 0,67.873647 2.1838,2.24511 4.5692,4.25935 7.1433,6.03905 2.574,1.77988 5.2949,3.29618 8.1625,4.5442 2.8678,1.24828 5.8222,2.20163 8.876,2.87087 3.0538,0.66936 6.15,1.0388 9.2752,1.1042 3.125,0.0652 6.2215,-0.17265 9.3006,-0.71346 3.0788,-0.54095 6.0777,-1.37014 8.9949,-2.49717 2.9173,-1.12652 5.7035,-2.52544 8.3494,-4.19595 2.6457,-1.67064 5.1062,-3.58168 7.3811,-5.73329 v 10.67666 h 15.2208 v -46.02767 h -0.01 V 76.559523 h -15.2123 v 12.6472 c -2.2748,-2.15144 -4.7354,-4.06252 -7.3811,-5.73329 -2.6458,-1.67064 -5.4323,-3.06882 -8.3494,-4.1959 -2.9171,-1.12682 -5.9161,-1.96488 -8.9949,-2.50565 -3.0788,-0.54095 -6.1755,-0.77848 -9.3007,-0.71351 z m -86.0079,0.0765 c -5.1335,-0.18352 -10.1596,0.44375 -15.0934,1.87711 -4.9365,1.43976 -9.5324,3.61195 -13.7768,6.52321 -4.2444,2.91114 -7.92862,6.41393 -11.05893,10.50681 -3.13019,4.09288 -5.54895,8.578017 -7.25368,13.445637 -1.70486,4.86757 -2.61655,9.87561 -2.72648,15.03395 -0.11612,5.15842 0.57382,10.20578 2.06394,15.14437 1.49003,4.93816 3.71101,9.52393 6.65915,13.7514 2.94784,4.2273 6.47864,7.88665 10.5917,10.98244 4.1128,3.09565 8.6022,5.47788 13.4711,7.13473 4.8652,1.64994 9.8646,2.49652 15,2.53966 5.1353,0.0439 10.1496,-0.71855 15.0424,-2.28482 4.893,-1.56557 9.4196,-3.86 13.5816,-6.87994 4.1619,-3.01998 7.7544,-6.61462 10.7701,-10.78708 l -15.5861,-7.62742 c -2.2042,2.49391 -4.7293,4.59165 -7.5849,6.2939 -2.8558,1.70221 -5.9031,2.92883 -9.1393,3.67779 -3.2365,0.74895 -6.5086,0.98818 -9.8188,0.71346 -3.31,-0.27441 -6.5029,-1.05463 -9.5725,-2.32726 -3.0727,-1.27668 -5.8759,-2.98607 -8.4173,-5.13873 -2.5414,-2.15244 -4.7018,-4.64078 -6.4722,-7.46603 -1.7704,-2.82511 -3.0663,-5.85684 -3.8987,-9.08835 -0.8321,-3.23147 -1.1613,-6.5116 -0.97674,-9.84426 0.18044,-3.3321 0.86694,-6.56331 2.04694,-9.68288 1.1804,-3.11988 2.7985,-5.98322 4.867,-8.59568 2.0682,-2.6125 4.484,-4.850867 7.2452,-6.710067 2.7611,-1.85851 5.7423,-3.24934 8.9354,-4.17895 3.1914,-0.92599 6.447,-1.34182 9.7678,-1.24858 3.3208,0.0926 6.5476,0.68976 9.6829,1.79219 3.1352,1.10229 6.0286,2.65538 8.6806,4.66309 2.6523,2.007927 4.9367,4.378197 6.8545,7.100767 l 14.6008,-7.635887 c -2.8289,-4.30345 -6.2606,-8.06008 -10.286,-11.26271 -4.0256,-3.20242 -8.4474,-5.69272 -13.2672,-7.47451 -4.82,-1.78184 -9.7989,-2.76406 -14.9321,-2.94736 z m 335.5206,0.009 v 0.009 c -6.1075,-0.013 -11.9952,1.11103 -17.6755,3.36354 -5.6803,2.25203 -10.7508,5.47919 -15.2038,9.6744 v -12.62233 h -15.2293 V 208.97776 h 15.2293 v -48.88163 c 3.8415,3.60777 8.1561,6.50125 12.9445,8.68914 4.7884,2.18749 9.8002,3.55515 15.0339,4.09401 5.2339,0.53881 10.4208,0.22396 15.5521,-0.94283 5.1309,-1.16661 9.9395,-3.1277 14.4309,-5.87767 4.4951,-2.75666 8.4361,-6.16073 11.8233,-10.20952 3.3877,-4.04934 6.0402,-8.53335 7.9672,-13.45412 1.9274,-4.92063 3.0288,-10.01677 3.2955,-15.29727 0.26655,-5.28019 -0.3113,-10.46949 -1.7327,-15.56055 -1.4148,-5.08932 -3.5996,-9.81408 -6.5572,-14.184587 -2.9576,-4.37024 -6.5358,-8.16005 -10.7276,-11.35617 -4.1917,-3.19572 -8.7801,-5.63457 -13.7684,-7.3216 -4.9882,-1.68751 -10.1184,-2.52853 -15.3822,-2.53114 z m -72.4178,0.37357 c -2.815,-0.003 -4.9601,1.20318 -6.4213,3.61833 l -37.0073,61.061677 c 0,-4.58064 -0.085,-36.07183 -0.085,-53.366287 0,-1.49808 -0.2935,-2.93966 -0.8664,-4.32337 -0.5729,-1.38366 -1.3901,-2.60136 -2.4462,-3.66078 -1.0561,-1.05876 -2.2732,-1.87246 -3.6523,-2.4462 -1.3792,-0.57378 -2.8133,-0.86637 -4.3063,-0.86637 h -2.9473 c -2.6189,0 -5.0513,1.36587 -6.4128,3.61834 l -37.2622,61.452367 0.3653,-64.866877 v -0.19526 h -15.5436 v 94.042927 h 14.8981 l 0.4249,-0.70498 c 14.015,-23.24098 28.1224,-46.42629 42.3075,-69.5639 v 62.71792 c 0,4.17585 3.3621,7.55944 7.5084,7.55944 h 3.1767 c 2.8108,-8.2e-4 4.9455,-1.20666 6.4043,-3.61833 7.6902,-12.6516 33.3601,-54.84328 40.5237,-66.48068 v 70.09053 h 15.5436 V 87.848213 c 0,-1.50169 -0.287,-2.94397 -0.8578,-4.33181 -0.5709,-1.38774 -1.3811,-2.61532 -2.4378,-3.67782 -1.0565,-1.06277 -2.2792,-1.87895 -3.6608,-2.45469 -1.3813,-0.57569 -2.8191,-0.86524 -4.3148,-0.86637 z m -369.97128,14.88957 c 18.19862,0 32.95578,14.838867 32.95578,33.142637 0,4.39265 -0.84185,8.62129 -2.51414,12.68121 -1.67272,4.05948 -4.05204,7.64337 -7.14326,10.75312 -3.08604,3.10622 -6.64889,5.5035 -10.68515,7.1857 -4.03625,1.68247 -8.23407,2.52096 -12.60475,2.52266 h -0.009 c -18.19375,0 -32.94729,-14.83887 -32.94729,-33.14269 0,-18.30377 14.75341,-33.142637 32.94729,-33.142637 z m -160.55758,0.009 c 18.19371,0 32.9473,14.838857 32.9473,33.142677 0,4.39347 -0.83376,8.62086 -2.50566,12.68117 -1.67176,4.06035 -4.05191,7.6512 -7.14326,10.7616 -3.08687,3.10622 -6.64793,5.49563 -10.68515,7.17722 -4.03738,1.68195 -8.24216,2.5224 -12.61323,2.52266 -18.19862,0 -32.94729,-14.83382 -32.94729,-33.14265 0,-18.29908 14.74854,-33.142677 32.94729,-33.142677 z m -102.5622,0.009 c 18.19862,0 32.95582,14.830347 32.95582,33.134167 1.3e-4,4.3929 -0.84158,8.62212 -2.51418,12.68116 -1.67255,4.05965 -4.05204,7.64329 -7.14322,10.75312 -3.08608,3.10622 -6.64893,5.50324 -10.68519,7.18571 -4.03639,1.68246 -8.2342,2.52087 -12.60471,2.52265 h -0.009 c -18.19371,0 -32.94729,-14.83882 -32.94729,-33.14264 0,-18.30382 14.75345,-33.134167 32.94729,-33.134167 z m 457.02386,0 c 18.1939,0 32.9473,14.830347 32.9473,33.134167 6e-4,4.3929 -0.8339,8.62212 -2.5056,12.68116 -1.6718,4.05935 -4.0529,7.64298 -7.1433,10.75312 -3.0866,3.10679 -6.6479,5.50324 -10.6852,7.18571 -4.0372,1.68246 -8.2419,2.52139 -12.6132,2.52265 -18.1984,0 -32.9558,-14.83882 -32.9558,-33.14264 0,-18.30382 14.7572,-33.134167 32.9558,-33.134167 z m 249.8101,0.10177 c 17.928,0.72364 31.9913,15.737667 31.6307,33.779697 -0.3605,18.0465 -15.0135,32.48014 -32.9558,32.48014 l -0.017,-0.009 c -2.081,0 -4.14,-0.20744 -6.1835,-0.60305 -2.0434,-0.39487 -4.0376,-0.97627 -5.9711,-1.74975 -1.9333,-0.77304 -3.775,-1.72164 -5.5294,-2.84538 -1.7544,-1.1236 -3.3877,-2.40484 -4.9009,-3.83921 -1.5132,-1.43419 -2.8758,-2.99506 -4.094,-4.68853 -1.2182,-1.6936 -2.2714,-3.49188 -3.1512,-5.38504 -0.8796,-1.89291 -1.5708,-3.84413 -2.081,-5.8692 -0.5098,-2.02523 -0.829,-4.08157 -0.9512,-6.16647 v -3.96659 c 1.072,-18.01354 16.2762,-31.861787 34.2043,-31.138147 z"
     id="path4401" />
  <path
     inkscape:connector-curvature="0"
     style="fill:#6B7280;fill-opacity:1;fill-rule:evenodd;stroke:none;stroke-width:4.75290155"
     d="m 11.594259,0.00522888 c -2.1618797,0.06262 -4.1556297,0.673195 -5.9881297,1.82615002 -1.74775,1.103423 -3.12323,2.559099 -4.11945,4.37429 -0.99627002,1.814975 -1.49117002,3.762984 -1.4864300195,5.8352241 V 135.31938 c -0.0130000005,2.07503 0.4824999995,4.02499 1.4779000195,5.8437 0.99531,1.81841 2.37067,3.27631 4.1195,4.38277 3.50118,2.20933 7.8794697,2.45117 11.5939597,0.63702 l 0.47567,-0.24614 49.98579,-28.70891 v 39.11377 c 0.013,3.21703 1.40349,5.6284 4.17894,7.23668 l 64.161851,36.60812 16.65628,-9.60643 -68.400251,-39.15626 v -43.70889 l 68.510661,-39.326127 -16.67323,-9.59794 -51.837431,29.75366 v -43.85332 c -0.013,-3.20768 -1.39862,-5.61722 -4.16193,-7.22819 L 17.684279,1.4748209 c -1.89595,-1.04423602 -3.92801,-1.53243302 -6.09002,-1.46941902 z m 4.94333,20.00281412 51.15796,29.5243 v 48.49941 l -51.15796,29.345917 z"
     id="path4375" />
</svg>
