<?xml version="1.0" encoding="utf-8"?>
<!-- Generator: Adobe Illustrator 16.0.0, SVG Export Plug-In . SVG Version: 6.00 Build 0)  -->
<!DOCTYPE svg PUBLIC "-//W3C//DTD SVG 1.1//EN" "http://www.w3.org/Graphics/SVG/1.1/DTD/svg11.dtd">
<svg version="1.1" id="Calque_1" xmlns="http://www.w3.org/2000/svg" xmlns:xlink="http://www.w3.org/1999/xlink" x="0px" y="0px"
	 width="160px" height="26px" viewBox="0 0 160 26" enable-background="new 0 0 160 26" xml:space="preserve">
<g>
	<defs>
		<rect id="SVGID_1_" x="11.616" y="0.933" width="136.793" height="23.588"/>
	</defs>
	<clipPath id="SVGID_2_">
		<use xlink:href="#SVGID_1_"  overflow="visible"/>
	</clipPath>
	<path clip-path="url(#SVGID_2_)" fill="#6B7280" d="M98.879,9.234c-1.926,0-3.489,1.568-3.489,3.494
		c0,1.923,1.563,3.491,3.489,3.491c1.925,0,3.492-1.567,3.492-3.491C102.371,10.803,100.804,9.234,98.879,9.234"/>
	<path clip-path="url(#SVGID_2_)" fill="#6B7280" d="M136.613,0.934c-3.859,0-7.283,1.853-9.434,4.715
		c-2.148-2.862-5.575-4.715-9.432-4.715s-7.287,1.853-9.435,4.717c-0.881-1.169-1.972-2.173-3.217-2.948l-0.016,10.025
		c0,3.421-2.784,6.204-6.202,6.204c-3.424,0-6.209-2.782-6.209-6.204c0-3.422,2.785-6.205,6.209-6.205
		c1.144,0,2.262,0.316,3.232,0.917l0.253,0.152l0.007-6.133c-1.106-0.34-2.278-0.525-3.489-0.525c-3.859,0-7.28,1.853-9.438,4.715
		c-2.147-2.862-5.575-4.715-9.432-4.715s-7.281,1.853-9.435,4.715c-2.151-2.862-5.575-4.715-9.435-4.715
		c-3.856,0-7.281,1.853-9.428,4.715c-2.157-2.862-5.584-4.715-9.435-4.715c-3.863,0-7.284,1.853-9.435,4.715
		c-2.154-2.862-5.575-4.715-9.438-4.715c-6.508,0-11.792,5.281-11.792,11.794c0,6.509,5.284,11.791,11.792,11.791
		c3.863,0,7.284-1.854,9.438-4.717c2.151,2.863,5.572,4.717,9.435,4.717c3.851,0,7.277-1.854,9.435-4.717
		c2.147,2.863,5.572,4.717,9.428,4.717c3.86,0,7.284-1.854,9.435-4.717c2.154,2.863,5.578,4.717,9.435,4.717
		s7.284-1.854,9.432-4.717c2.157,2.863,5.578,4.717,9.438,4.717c3.856,0,7.28-1.854,9.432-4.717
		c2.147,2.863,5.578,4.717,9.435,4.717s7.283-1.854,9.432-4.717c2.15,2.863,5.574,4.717,9.434,4.717
		c6.515,0,11.793-5.281,11.793-11.791C148.406,6.215,143.128,0.934,136.613,0.934"/>
	<path clip-path="url(#SVGID_2_)" fill="#FFFFFF" d="M102.114,7.439c-0.974-0.6-2.092-0.916-3.235-0.916
		c-3.424,0-6.209,2.783-6.209,6.204c0,3.423,2.785,6.205,6.209,6.205c3.418,0,6.199-2.782,6.199-6.205l0.019-10.021
		c-0.851-0.525-1.762-0.947-2.726-1.246l-0.007,6.133L102.114,7.439z M98.879,16.22c-1.926,0-3.489-1.568-3.489-3.493
		c0-1.924,1.563-3.49,3.489-3.49c1.925,0,3.492,1.566,3.492,3.49C102.371,14.651,100.804,16.22,98.879,16.22"/>
	<path clip-path="url(#SVGID_2_)" fill="#FFFFFF" d="M117.748,18.932c-3.421,0-6.209-2.782-6.209-6.204
		c0-3.424,2.788-6.208,6.209-6.208s6.205,2.784,6.205,6.208C123.953,16.149,121.169,18.932,117.748,18.932 M117.748,9.234
		c-1.926,0-3.492,1.568-3.492,3.494c0,1.923,1.566,3.491,3.492,3.491c1.928,0,3.488-1.567,3.488-3.491
		C121.236,10.803,119.676,9.234,117.748,9.234"/>
	<path clip-path="url(#SVGID_2_)" fill="#FFFFFF" d="M136.617,18.932c-3.425,0-6.209-2.782-6.209-6.204
		c0-3.424,2.784-6.208,6.209-6.208c3.421,0,6.202,2.784,6.202,6.208C142.819,16.149,140.038,18.932,136.617,18.932 M136.617,9.234
		c-1.926,0-3.492,1.568-3.492,3.494c0,1.923,1.566,3.491,3.492,3.491c1.922,0,3.488-1.567,3.488-3.491
		C140.105,10.803,138.539,9.234,136.617,9.234"/>
	<path clip-path="url(#SVGID_2_)" fill="#FFFFFF" d="M42.284,18.932c-3.424,0-6.208-2.782-6.208-6.204
		c0-3.424,2.784-6.208,6.208-6.208c3.418,0,6.199,2.784,6.199,6.208C48.483,16.149,45.702,18.932,42.284,18.932 M42.284,9.234
		c-1.925,0-3.492,1.568-3.492,3.494c0,1.923,1.566,3.491,3.492,3.491c1.922,0,3.486-1.567,3.486-3.491
		C45.77,10.803,44.206,9.234,42.284,9.234"/>
	<path clip-path="url(#SVGID_2_)" fill="#FFFFFF" d="M23.415,18.932c-3.421,0-6.208-2.782-6.208-6.204
		c0-3.424,2.787-6.208,6.208-6.208c3.418,0,6.206,2.784,6.206,6.208C29.62,16.149,26.833,18.932,23.415,18.932 M23.415,9.234
		c-1.925,0-3.495,1.568-3.495,3.494c0,1.923,1.57,3.491,3.495,3.491c1.925,0,3.492-1.567,3.492-3.491
		C26.907,10.803,25.34,9.234,23.415,9.234"/>
	<path clip-path="url(#SVGID_2_)" fill="#FFFFFF" d="M80.226,18.937c-0.198,0-0.386-0.008-0.565-0.021l-0.146-0.012l-0.198-0.016
		c-3.143-0.348-5.51-2.996-5.51-6.161c0-3.425,2.781-6.21,6.208-6.21c3.418,0,6.205,2.785,6.205,6.21
		c0,0.415-0.033,0.764-0.117,1.174l-9.367-0.007l0.189,0.453c0.5,0.946,1.384,1.604,2.419,1.802
		c0.306,0.056,0.618,0.087,0.933,0.087l0.151-0.003c0.905-0.028,1.762-0.339,2.346-0.861l0.08-0.07l2.521,1.352l-0.117,0.133
		c-1.134,1.369-2.753,2.089-4.817,2.142C80.365,18.934,80.3,18.937,80.226,18.937 M80.016,9.236c-1.434,0-2.704,0.854-3.235,2.178
		l-0.016,0.037l6.486,0.008l-0.012-0.037C82.711,10.092,81.446,9.236,80.016,9.236"/>
	<path clip-path="url(#SVGID_2_)" fill="#FFFFFF" d="M55.309,18.62l0.006-5.891l0.009-0.34c0.182-3.29,2.905-5.864,6.196-5.864
		c2.361,0,4.484,1.313,5.544,3.428l-2.395,1.276c-0.575-1.209-1.811-1.99-3.149-1.99c-1.922,0-3.486,1.567-3.486,3.492l-0.003,5.888
		H55.309z"/>
</g>
</svg>
