<?xml version="1.0" standalone="no"?>
<!DOCTYPE svg PUBLIC "-//W3C//DTD SVG 20010904//EN"
 "http://www.w3.org/TR/2001/REC-SVG-20010904/DTD/svg10.dtd">
<svg version="1.0" xmlns="http://www.w3.org/2000/svg"
 width="261.000000pt" height="135.000000pt" viewBox="0 0 261.000000 135.000000"
 preserveAspectRatio="xMidYMid meet">

<g transform="translate(0.000000,135.000000) scale(0.100000,-0.100000)"
fill="#6B7280" stroke="none">
<path d="M684 1315 c-153 -27 -255 -69 -370 -151 -137 -97 -230 -257 -277
-474 -26 -121 -28 -412 -4 -564 9 -54 18 -100 20 -102 2 -2 26 13 53 35 135
107 330 177 589 212 44 6 278 14 520 19 242 5 481 13 530 19 333 38 552 125
691 274 112 120 154 239 154 437 0 103 -22 285 -36 299 -2 3 -42 -5 -87 -17
-160 -42 -295 -55 -557 -55 -253 1 -340 8 -675 58 -192 28 -427 33 -551 10z
m130 -45 c5 -5 -50 -37 -125 -75 -235 -117 -358 -223 -500 -432 -66 -98 -73
-105 -82 -85 -7 16 -6 44 6 97 57 266 272 462 552 504 64 10 134 6 149 -9z
m266 -215 c9 -11 8 -55 -5 -202 -9 -103 -20 -191 -23 -195 -9 -9 -79 -14 -87
-6 -7 7 22 396 31 409 9 15 71 10 84 -6z m1320 -22 c0 -24 -126 -312 -146
-335 -18 -19 -114 -44 -138 -35 -9 4 -16 15 -16 26 0 23 28 41 63 41 47 0 48
18 12 134 -19 59 -36 120 -37 134 -3 25 0 27 39 30 l41 3 17 -76 c10 -42 21
-73 26 -68 4 4 18 37 31 73 16 45 30 68 48 77 35 18 60 16 60 -4z m-280 -45
c0 -44 -9 -54 -51 -62 -21 -4 -43 -14 -50 -23 -8 -9 -19 -55 -24 -102 l-10
-86 -43 -6 c-23 -3 -44 -3 -47 -1 -7 8 5 143 17 182 6 19 19 47 29 61 25 35
94 69 142 69 35 0 37 -2 37 -32z m-270 7 c16 -8 32 -24 35 -36 11 -33 -5 -171
-23 -202 -24 -40 -89 -68 -165 -70 -88 -2 -117 17 -117 79 0 71 24 89 168 124
56 14 58 40 3 40 -22 0 -43 -4 -46 -10 -8 -12 -105 -13 -105 -1 0 18 44 64 74
77 42 18 140 18 176 -1z m-505 -8 c17 1 55 4 85 8 45 5 61 3 88 -14 45 -29 53
-57 45 -164 -8 -124 -14 -137 -57 -137 -49 0 -57 19 -46 121 9 90 2 119 -29
119 -31 0 -42 -25 -48 -117 -8 -125 -12 -133 -69 -133 l-46 0 3 116 c4 102 2
118 -13 128 -14 8 -22 7 -35 -7 -14 -13 -20 -45 -28 -130 l-10 -112 -53 -3
-53 -3 5 43 c3 24 8 77 11 118 4 41 13 89 22 107 22 47 90 76 158 65 22 -3 54
-5 70 -5z m-763 -13 c70 -20 72 -198 2 -303 -40 -61 -126 -97 -173 -71 -16 8
-19 4 -25 -37 -3 -25 -6 -60 -6 -78 0 -42 -26 -73 -67 -81 -33 -6 -33 -6 -33
32 0 22 7 120 14 220 16 213 28 247 102 290 70 41 115 48 186 28z m342 -15
c23 -18 26 -28 26 -78 0 -169 -46 -241 -172 -269 -92 -21 -137 8 -138 88 0 83
38 121 153 154 45 13 58 21 55 34 -5 25 -41 26 -84 3 -37 -20 -104 -29 -104
-13 0 21 42 70 71 85 51 25 159 23 193 -4z m1041 -378 c79 -17 135 -33 135
-40 0 -3 -107 -6 -238 -6 -262 0 -380 -12 -682 -70 -236 -45 -362 -58 -500
-53 -98 4 -126 9 -173 31 -31 14 -57 30 -57 34 0 4 51 8 113 9 61 0 148 6 192
13 436 66 552 83 630 90 112 12 513 6 580 -8z"/>
<path d="M1727 820 c-31 -10 -57 -28 -57 -41 0 -18 38 -29 68 -18 24 8 52 43
52 64 0 7 -31 4 -63 -5z"/>
<path d="M470 877 c-33 -17 -50 -52 -50 -108 0 -60 20 -80 58 -58 15 8 32 26
39 39 18 35 16 105 -3 124 -18 19 -13 19 -44 3z"/>
<path d="M799 787 c-41 -19 -59 -38 -59 -63 0 -19 5 -24 26 -24 31 0 84 50 84
79 0 23 -12 25 -51 8z"/>
</g>
</svg>
