<?xml version="1.0" encoding="UTF-8"?>
<svg xmlns="http://www.w3.org/2000/svg" xmlns:xlink="http://www.w3.org/1999/xlink" width="283.46pt" height="283.46pt" viewBox="0 0 283.46 283.46" version="1.1">
<g id="surface1">
<path style=" stroke:none;fill-rule:nonzero;fill:none;fill-opacity:1;" d="M 0 283.460938 L 283.464844 283.460938 L 283.464844 -0.00390625 L 0 -0.00390625 Z M 0 283.460938 "/>
<path style=" stroke:none;fill-rule:nonzero;fill:#6b72809f;fill-opacity:1;" d="M 242.773438 198.871094 C 174.589844 166.871094 263.984375 101.347656 233.824219 91.78125 C 190.78125 78.128906 45.460938 170.285156 17.335938 177.109375 C 5.128906 180.074219 37.183594 152.519531 86.375 126.339844 C 130.6875 102.753906 189.390625 80.441406 233.824219 79.835938 C 278.570313 78.128906 234.308594 128.230469 229.136719 149.804688 C 224.023438 171.136719 230.839844 180.949219 242.773438 198.871094 "/>
<path style=" stroke:none;fill-rule:nonzero;fill:#6B7280;fill-opacity:1;" d="M 57.90625 194.902344 L 51.15625 194.902344 L 50.21875 198.507813 L 44.144531 198.507813 L 51.378906 176.664063 L 57.867188 176.664063 L 65.097656 198.507813 L 58.871094 198.507813 Z M 56.675781 190.179688 L 54.550781 182.324219 L 52.449219 190.179688 "/>
<path style=" stroke:none;fill-rule:nonzero;fill:#6B7280;fill-opacity:1;" d="M 65.6875 194.113281 L 70.992188 193.546875 C 71.210938 194.261719 71.519531 194.773438 71.910156 195.082031 C 72.304688 195.386719 72.832031 195.542969 73.484375 195.542969 C 74.203125 195.542969 74.757813 195.367188 75.152344 195.019531 C 75.460938 194.761719 75.613281 194.441406 75.613281 194.054688 C 75.613281 193.617188 75.410156 193.28125 75.007813 193.042969 C 74.71875 192.875 73.953125 192.667969 72.710938 192.417969 C 70.855469 192.050781 69.566406 191.710938 68.84375 191.398438 C 68.125 191.085938 67.515625 190.558594 67.019531 189.8125 C 66.527344 189.066406 66.28125 188.222656 66.28125 187.265625 C 66.28125 186.226563 66.546875 185.328125 67.078125 184.574219 C 67.613281 183.820313 68.347656 183.257813 69.285156 182.882813 C 70.222656 182.511719 71.476563 182.324219 73.050781 182.324219 C 74.714844 182.324219 75.945313 182.46875 76.734375 182.757813 C 77.527344 183.046875 78.1875 183.496094 78.71875 184.097656 C 79.246094 184.707031 79.6875 185.523438 80.039063 186.558594 L 74.96875 187.125 C 74.839844 186.617188 74.621094 186.246094 74.3125 186.007813 C 73.894531 185.6875 73.386719 185.53125 72.789063 185.53125 C 72.1875 185.53125 71.746094 185.652344 71.472656 185.894531 C 71.195313 186.136719 71.058594 186.433594 71.058594 186.777344 C 71.058594 187.167969 71.230469 187.460938 71.582031 187.65625 C 71.933594 187.855469 72.695313 188.035156 73.867188 188.191406 C 75.644531 188.421875 76.964844 188.738281 77.832031 189.144531 C 78.699219 189.550781 79.359375 190.132813 79.820313 190.886719 C 80.28125 191.640625 80.507813 192.46875 80.507813 193.371094 C 80.507813 194.285156 80.265625 195.175781 79.78125 196.039063 C 79.296875 196.898438 78.53125 197.589844 77.484375 198.097656 C 76.4375 198.609375 75.015625 198.863281 73.210938 198.863281 C 70.664063 198.863281 68.847656 198.453125 67.769531 197.628906 C 66.6875 196.804688 65.996094 195.632813 65.6875 194.113281 "/>
<path style=" stroke:none;fill-rule:nonzero;fill:#6B7280;fill-opacity:1;" d="M 82.113281 194.113281 L 87.417969 193.546875 C 87.632813 194.261719 87.941406 194.773438 88.335938 195.082031 C 88.726563 195.386719 89.253906 195.542969 89.910156 195.542969 C 90.628906 195.542969 91.183594 195.367188 91.578125 195.019531 C 91.882813 194.761719 92.035156 194.441406 92.035156 194.054688 C 92.035156 193.617188 91.835938 193.28125 91.433594 193.042969 C 91.144531 192.875 90.378906 192.667969 89.136719 192.417969 C 87.28125 192.050781 85.992188 191.710938 85.269531 191.398438 C 84.546875 191.085938 83.941406 190.558594 83.445313 189.8125 C 82.949219 189.066406 82.703125 188.222656 82.703125 187.265625 C 82.703125 186.226563 82.96875 185.328125 83.503906 184.574219 C 84.035156 183.820313 84.773438 183.257813 85.710938 182.882813 C 86.644531 182.511719 87.902344 182.324219 89.476563 182.324219 C 91.140625 182.324219 92.367188 182.46875 93.160156 182.757813 C 93.953125 183.046875 94.613281 183.496094 95.140625 184.097656 C 95.671875 184.707031 96.109375 185.523438 96.460938 186.558594 L 91.394531 187.125 C 91.261719 186.617188 91.042969 186.246094 90.738281 186.007813 C 90.316406 185.6875 89.808594 185.53125 89.214844 185.53125 C 88.609375 185.53125 88.171875 185.652344 87.894531 185.894531 C 87.617188 186.136719 87.480469 186.433594 87.480469 186.777344 C 87.480469 187.167969 87.65625 187.460938 88.007813 187.65625 C 88.355469 187.855469 89.117188 188.035156 90.289063 188.191406 C 92.066406 188.421875 93.386719 188.738281 94.253906 189.144531 C 95.121094 189.550781 95.785156 190.132813 96.242188 190.886719 C 96.703125 191.640625 96.933594 192.46875 96.933594 193.371094 C 96.933594 194.285156 96.691406 195.175781 96.207031 196.039063 C 95.71875 196.898438 94.953125 197.589844 93.90625 198.097656 C 92.863281 198.609375 91.4375 198.863281 89.632813 198.863281 C 87.085938 198.863281 85.273438 198.453125 84.195313 197.628906 C 83.113281 196.804688 82.417969 195.632813 82.113281 194.113281 "/>
<path style=" stroke:none;fill-rule:nonzero;fill:#6B7280;fill-opacity:1;" d="M 114.171875 198.507813 L 109.183594 198.507813 L 109.183594 195.945313 C 108.4375 196.996094 107.6875 197.746094 106.929688 198.195313 C 106.175781 198.640625 105.242188 198.863281 104.140625 198.863281 C 102.671875 198.863281 101.519531 198.367188 100.683594 197.367188 C 99.847656 196.367188 99.429688 194.832031 99.429688 192.757813 L 99.429688 182.683594 L 104.796875 182.683594 L 104.796875 191.386719 C 104.796875 192.378906 104.960938 193.082031 105.285156 193.5 C 105.605469 193.917969 106.0625 194.125 106.648438 194.125 C 107.285156 194.125 107.808594 193.847656 108.21875 193.292969 C 108.625 192.738281 108.828125 191.738281 108.828125 190.296875 L 108.828125 182.683594 L 114.171875 182.683594 "/>
<path style=" stroke:none;fill-rule:nonzero;fill:#6B7280;fill-opacity:1;" d="M 117.464844 182.683594 L 122.46875 182.683594 L 122.46875 185.277344 C 122.949219 184.15625 123.445313 183.382813 123.957031 182.957031 C 124.46875 182.539063 125.101563 182.328125 125.855469 182.328125 C 126.644531 182.328125 127.503906 182.605469 128.441406 183.160156 L 126.785156 187.480469 C 126.15625 187.183594 125.65625 187.035156 125.289063 187.035156 C 124.589844 187.035156 124.046875 187.363281 123.660156 188.019531 C 123.109375 188.941406 122.835938 190.667969 122.835938 193.203125 L 122.835938 198.507813 L 117.464844 198.507813 "/>
<path style=" stroke:none;fill-rule:nonzero;fill:#6B7280;fill-opacity:1;" d="M 134.679688 187.808594 L 129.570313 187.199219 C 129.761719 186.183594 130.039063 185.386719 130.402344 184.808594 C 130.769531 184.226563 131.289063 183.722656 131.972656 183.296875 C 132.464844 182.988281 133.136719 182.75 133.992188 182.578125 C 134.851563 182.410156 135.78125 182.328125 136.777344 182.328125 C 138.378906 182.328125 139.667969 182.429688 140.636719 182.632813 C 141.609375 182.835938 142.417969 183.261719 143.066406 183.90625 C 143.523438 184.355469 143.878906 184.988281 144.144531 185.804688 C 144.40625 186.625 144.535156 187.410156 144.535156 188.152344 L 144.535156 195.140625 C 144.535156 195.882813 144.578125 196.46875 144.660156 196.890625 C 144.746094 197.316406 144.925781 197.851563 145.203125 198.507813 L 140.191406 198.507813 C 139.988281 198.097656 139.859375 197.789063 139.796875 197.578125 C 139.738281 197.363281 139.675781 197.027344 139.613281 196.570313 C 138.910156 197.335938 138.21875 197.878906 137.527344 198.210938 C 136.582031 198.648438 135.484375 198.867188 134.230469 198.867188 C 132.566406 198.867188 131.304688 198.425781 130.445313 197.554688 C 129.582031 196.679688 129.148438 195.605469 129.148438 194.320313 C 129.148438 193.121094 129.460938 192.128906 130.082031 191.355469 C 130.703125 190.582031 131.851563 190.003906 133.523438 189.628906 C 135.527344 189.167969 136.824219 188.847656 137.421875 188.667969 C 138.015625 188.484375 138.644531 188.242188 139.3125 187.945313 C 139.3125 187.199219 139.175781 186.675781 138.90625 186.378906 C 138.632813 186.082031 138.15625 185.929688 137.472656 185.929688 C 136.597656 185.929688 135.941406 186.089844 135.503906 186.410156 C 135.164063 186.660156 134.886719 187.125 134.679688 187.808594 M 139.3125 190.996094 C 138.574219 191.296875 137.8125 191.558594 137.015625 191.789063 C 135.929688 192.117188 135.242188 192.441406 134.953125 192.753906 C 134.65625 193.082031 134.507813 193.457031 134.507813 193.875 C 134.507813 194.347656 134.652344 194.742188 134.945313 195.042969 C 135.238281 195.34375 135.671875 195.496094 136.238281 195.496094 C 136.835938 195.496094 137.390625 195.332031 137.898438 195.003906 C 138.410156 194.679688 138.777344 194.28125 138.988281 193.804688 C 139.203125 193.335938 139.3125 192.71875 139.3125 191.964844 "/>
<path style=" stroke:none;fill-rule:nonzero;fill:#6B7280;fill-opacity:1;" d="M 147.738281 182.683594 L 152.71875 182.683594 L 152.71875 185.261719 C 153.460938 184.207031 154.214844 183.457031 154.972656 183.003906 C 155.734375 182.554688 156.664063 182.328125 157.757813 182.328125 C 159.234375 182.328125 160.394531 182.824219 161.230469 183.824219 C 162.0625 184.824219 162.484375 186.363281 162.484375 188.449219 L 162.484375 198.507813 L 157.113281 198.507813 L 157.113281 189.804688 C 157.113281 188.8125 156.949219 188.109375 156.628906 187.699219 C 156.304688 187.285156 155.847656 187.078125 155.261719 187.078125 C 154.613281 187.078125 154.089844 187.359375 153.6875 187.914063 C 153.285156 188.46875 153.085938 189.46875 153.085938 190.910156 L 153.085938 198.507813 L 147.738281 198.507813 "/>
<path style=" stroke:none;fill-rule:nonzero;fill:#6B7280;fill-opacity:1;" d="M 176.070313 192.308594 L 181.152344 192.964844 C 180.871094 194.164063 180.410156 195.207031 179.773438 196.085938 C 179.132813 196.964844 178.316406 197.648438 177.324219 198.132813 C 176.332031 198.621094 175.066406 198.867188 173.539063 198.867188 C 172.058594 198.867188 170.824219 198.707031 169.839844 198.394531 C 168.855469 198.082031 168.011719 197.578125 167.300781 196.878906 C 166.589844 196.179688 166.035156 195.359375 165.632813 194.414063 C 165.230469 193.46875 165.03125 192.21875 165.03125 190.664063 C 165.03125 189.035156 165.273438 187.679688 165.765625 186.597656 C 166.125 185.804688 166.613281 185.09375 167.234375 184.460938 C 167.855469 183.832031 168.496094 183.363281 169.152344 183.054688 C 170.191406 182.570313 171.527344 182.328125 173.15625 182.328125 C 175.429688 182.328125 177.167969 182.789063 178.359375 183.710938 C 179.554688 184.632813 180.394531 185.988281 180.878906 187.765625 L 175.847656 188.527344 C 175.6875 187.847656 175.402344 187.339844 174.988281 186.996094 C 174.570313 186.65625 174.015625 186.484375 173.3125 186.484375 C 172.429688 186.484375 171.714844 186.84375 171.167969 187.5625 C 170.621094 188.28125 170.347656 189.371094 170.347656 190.828125 C 170.347656 192.125 170.617188 193.113281 171.160156 193.785156 C 171.703125 194.460938 172.394531 194.796875 173.234375 194.796875 C 173.933594 194.796875 174.523438 194.59375 175 194.1875 C 175.476563 193.78125 175.835938 193.15625 176.070313 192.308594 "/>
<path style=" stroke:none;fill-rule:nonzero;fill:#6B7280;fill-opacity:1;" d="M 199.085938 192.101563 L 188.371094 192.101563 C 188.46875 193.074219 188.699219 193.796875 189.066406 194.277344 C 189.585938 194.960938 190.257813 195.304688 191.089844 195.304688 C 191.613281 195.304688 192.113281 195.15625 192.585938 194.859375 C 192.875 194.667969 193.1875 194.335938 193.519531 193.859375 L 198.78125 194.410156 C 197.976563 196 197.007813 197.140625 195.867188 197.828125 C 194.730469 198.519531 193.097656 198.867188 190.972656 198.867188 C 189.121094 198.867188 187.671875 198.570313 186.609375 197.980469 C 185.554688 197.386719 184.675781 196.449219 183.980469 195.164063 C 183.285156 193.875 182.9375 192.363281 182.9375 190.625 C 182.9375 188.152344 183.636719 186.152344 185.027344 184.621094 C 186.425781 183.09375 188.355469 182.328125 190.8125 182.328125 C 192.808594 182.328125 194.382813 182.667969 195.539063 183.355469 C 196.695313 184.039063 197.574219 185.035156 198.179688 186.332031 C 198.78125 187.636719 199.085938 189.328125 199.085938 191.414063 Z M 193.648438 189.195313 C 193.542969 188.023438 193.265625 187.183594 192.816406 186.675781 C 192.363281 186.167969 191.773438 185.917969 191.035156 185.917969 C 190.1875 185.917969 189.507813 186.300781 189.003906 187.066406 C 188.679688 187.539063 188.472656 188.25 188.386719 189.195313 "/>
<path style=" stroke:none;fill-rule:nonzero;fill:#6B7280;fill-opacity:1;" d="M 200.59375 194.113281 L 205.898438 193.546875 C 206.117188 194.261719 206.421875 194.773438 206.816406 195.082031 C 207.210938 195.386719 207.734375 195.542969 208.394531 195.542969 C 209.109375 195.542969 209.664063 195.367188 210.0625 195.019531 C 210.367188 194.761719 210.519531 194.441406 210.519531 194.054688 C 210.519531 193.617188 210.316406 193.28125 209.914063 193.042969 C 209.628906 192.875 208.859375 192.667969 207.617188 192.417969 C 205.761719 192.050781 204.472656 191.710938 203.75 191.398438 C 203.03125 191.085938 202.421875 190.558594 201.925781 189.8125 C 201.433594 189.066406 201.183594 188.222656 201.183594 187.265625 C 201.183594 186.226563 201.453125 185.328125 201.988281 184.574219 C 202.519531 183.820313 203.253906 183.257813 204.191406 182.882813 C 205.128906 182.511719 206.382813 182.324219 207.960938 182.324219 C 209.621094 182.324219 210.847656 182.46875 211.644531 182.757813 C 212.433594 183.046875 213.09375 183.496094 213.621094 184.097656 C 214.152344 184.707031 214.59375 185.523438 214.945313 186.558594 L 209.875 187.125 C 209.742188 186.617188 209.527344 186.246094 209.21875 186.007813 C 208.800781 185.6875 208.292969 185.53125 207.699219 185.53125 C 207.09375 185.53125 206.652344 185.652344 206.378906 185.894531 C 206.101563 186.136719 205.964844 186.433594 205.964844 186.777344 C 205.964844 187.167969 206.140625 187.460938 206.488281 187.65625 C 206.839844 187.855469 207.601563 188.035156 208.773438 188.191406 C 210.550781 188.421875 211.871094 188.738281 212.738281 189.144531 C 213.605469 189.550781 214.269531 190.132813 214.726563 190.886719 C 215.1875 191.640625 215.414063 192.46875 215.414063 193.371094 C 215.414063 194.285156 215.171875 195.175781 214.6875 196.039063 C 214.199219 196.898438 213.4375 197.589844 212.390625 198.097656 C 211.34375 198.609375 209.917969 198.863281 208.117188 198.863281 C 205.570313 198.863281 203.757813 198.453125 202.675781 197.628906 C 201.59375 196.804688 200.902344 195.632813 200.59375 194.113281 "/>
<path style=" stroke:none;fill-rule:nonzero;fill:#6B7280;fill-opacity:1;" d="M 46.09375 154.660156 L 63.671875 152.71875 C 64.398438 155.171875 65.414063 156.925781 66.71875 157.980469 C 68.023438 159.035156 69.765625 159.566406 71.941406 159.566406 C 74.320313 159.566406 76.160156 158.96875 77.46875 157.777344 C 78.484375 156.894531 78.988281 155.789063 78.988281 154.464844 C 78.988281 152.96875 78.324219 151.8125 76.988281 150.996094 C 76.03125 150.414063 73.492188 149.703125 69.375 148.851563 C 63.222656 147.59375 58.953125 146.429688 56.558594 145.355469 C 54.164063 144.285156 52.148438 142.472656 50.511719 139.921875 C 48.871094 137.371094 48.050781 134.460938 48.050781 131.195313 C 48.050781 127.621094 48.9375 124.542969 50.707031 121.957031 C 52.476563 119.371094 54.910156 117.441406 58.015625 116.164063 C 61.121094 114.890625 65.28125 114.25 70.503906 114.25 C 76.015625 114.25 80.085938 114.746094 82.710938 115.730469 C 85.335938 116.722656 87.527344 118.253906 89.28125 120.328125 C 91.035156 122.40625 92.492188 125.21875 93.65625 128.757813 L 76.859375 130.699219 C 76.421875 128.964844 75.699219 127.6875 74.683594 126.867188 C 73.289063 125.78125 71.605469 125.234375 69.632813 125.234375 C 67.632813 125.234375 66.175781 125.652344 65.261719 126.484375 C 64.347656 127.316406 63.890625 128.328125 63.890625 129.519531 C 63.890625 130.847656 64.46875 131.847656 65.632813 132.527344 C 66.792969 133.210938 69.316406 133.820313 73.203125 134.367188 C 79.09375 135.148438 83.472656 136.234375 86.34375 137.632813 C 89.214844 139.027344 91.414063 141.015625 92.9375 143.601563 C 94.460938 146.1875 95.222656 149.03125 95.222656 152.125 C 95.222656 155.257813 94.417969 158.300781 92.804688 161.261719 C 91.195313 164.222656 88.65625 166.578125 85.191406 168.328125 C 81.722656 170.082031 77.003906 170.957031 71.027344 170.957031 C 62.585938 170.957031 56.574219 169.546875 52.988281 166.71875 C 49.40625 163.890625 47.109375 159.871094 46.09375 154.660156 "/>
<path style=" stroke:none;fill-rule:nonzero;fill:#6B7280;fill-opacity:1;" d="M 119.808594 133.050781 L 102.878906 130.957031 C 103.519531 127.480469 104.4375 124.75 105.644531 122.757813 C 106.847656 120.765625 108.578125 119.035156 110.84375 117.570313 C 112.46875 116.515625 114.699219 115.699219 117.542969 115.121094 C 120.386719 114.539063 123.460938 114.25 126.769531 114.25 C 132.078125 114.25 136.34375 114.601563 139.5625 115.296875 C 142.78125 115.996094 145.46875 117.453125 147.613281 119.664063 C 149.121094 121.199219 150.3125 123.371094 151.183594 126.179688 C 152.054688 128.988281 152.484375 131.671875 152.484375 134.226563 L 152.484375 158.183594 C 152.484375 160.738281 152.625 162.742188 152.902344 164.1875 C 153.175781 165.636719 153.777344 167.484375 154.707031 169.730469 L 138.082031 169.730469 C 137.414063 168.335938 136.980469 167.269531 136.777344 166.539063 C 136.574219 165.804688 136.371094 164.65625 136.167969 163.089844 C 133.847656 165.710938 131.539063 167.585938 129.25 168.710938 C 126.117188 170.207031 122.476563 170.957031 118.328125 170.957031 C 112.816406 170.957031 108.628906 169.460938 105.773438 166.460938 C 102.914063 163.464844 101.488281 159.769531 101.488281 155.375 C 101.488281 151.253906 102.515625 147.867188 104.578125 145.210938 C 106.636719 142.554688 110.4375 140.578125 115.976563 139.28125 C 122.621094 137.71875 126.929688 136.617188 128.902344 135.988281 C 130.875 135.359375 132.964844 134.53125 135.167969 133.511719 C 135.167969 130.957031 134.71875 129.167969 133.820313 128.148438 C 132.921875 127.125 131.339844 126.613281 129.074219 126.613281 C 126.175781 126.613281 124 127.160156 122.550781 128.25 C 121.417969 129.101563 120.503906 130.699219 119.808594 133.050781 M 135.167969 143.984375 C 132.730469 145.007813 130.191406 145.90625 127.554688 146.691406 C 123.953125 147.816406 121.679688 148.921875 120.722656 150.011719 C 119.734375 151.136719 119.242188 152.414063 119.242188 153.84375 C 119.242188 155.476563 119.726563 156.816406 120.699219 157.855469 C 121.671875 158.894531 123.097656 159.410156 124.984375 159.410156 C 126.957031 159.410156 128.792969 158.851563 130.488281 157.726563 C 132.1875 156.601563 133.390625 155.230469 134.101563 153.613281 C 134.8125 151.996094 135.167969 149.894531 135.167969 147.304688 "/>
<path style=" stroke:none;fill-rule:nonzero;fill:#6B7280;fill-opacity:1;" d="M 179.246094 133.050781 L 162.320313 130.957031 C 162.957031 127.480469 163.878906 124.75 165.085938 122.757813 C 166.285156 120.765625 168.019531 119.035156 170.285156 117.570313 C 171.90625 116.515625 174.144531 115.699219 176.984375 115.121094 C 179.828125 114.539063 182.902344 114.25 186.210938 114.25 C 191.519531 114.25 195.78125 114.601563 199.003906 115.296875 C 202.222656 115.996094 204.90625 117.453125 207.054688 119.664063 C 208.5625 121.199219 209.753906 123.371094 210.621094 126.179688 C 211.492188 128.988281 211.925781 131.671875 211.925781 134.226563 L 211.925781 158.183594 C 211.925781 160.738281 212.0625 162.742188 212.339844 164.1875 C 212.617188 165.636719 213.21875 167.484375 214.144531 169.730469 L 197.523438 169.730469 C 196.855469 168.335938 196.421875 167.269531 196.21875 166.539063 C 196.015625 165.804688 195.8125 164.65625 195.609375 163.089844 C 193.285156 165.710938 190.980469 167.585938 188.691406 168.710938 C 185.558594 170.207031 181.914063 170.957031 177.769531 170.957031 C 172.257813 170.957031 168.070313 169.460938 165.214844 166.460938 C 162.355469 163.464844 160.925781 159.769531 160.925781 155.375 C 160.925781 151.253906 161.957031 147.867188 164.019531 145.210938 C 166.074219 142.554688 169.878906 140.578125 175.417969 139.28125 C 182.0625 137.71875 186.367188 136.617188 188.34375 135.988281 C 190.316406 135.359375 192.402344 134.53125 194.609375 133.511719 C 194.609375 130.957031 194.15625 129.167969 193.257813 128.148438 C 192.359375 127.125 190.777344 126.613281 188.515625 126.613281 C 185.613281 126.613281 183.4375 127.160156 181.988281 128.25 C 180.855469 129.101563 179.941406 130.699219 179.246094 133.050781 M 194.609375 143.984375 C 192.171875 145.007813 189.632813 145.90625 186.992188 146.691406 C 183.394531 147.816406 181.117188 148.921875 180.160156 150.011719 C 179.175781 151.136719 178.683594 152.414063 178.683594 153.84375 C 178.683594 155.476563 179.167969 156.816406 180.140625 157.855469 C 181.109375 158.894531 182.539063 159.410156 184.425781 159.410156 C 186.398438 159.410156 188.234375 158.851563 189.929688 157.726563 C 191.628906 156.601563 192.828125 155.230469 193.542969 153.613281 C 194.253906 151.996094 194.609375 149.894531 194.609375 147.304688 "/>
</g>
</svg>
