<?xml version="1.0" standalone="no"?>
<!DOCTYPE svg PUBLIC "-//W3C//DTD SVG 20010904//EN"
 "http://www.w3.org/TR/2001/REC-SVG-20010904/DTD/svg10.dtd">
<svg version="1.0" xmlns="http://www.w3.org/2000/svg"
 width="225.000000pt" height="225.000000pt" viewBox="0 0 225.000000 225.000000"
 preserveAspectRatio="xMidYMid meet">

<g transform="translate(0.000000,225.000000) scale(0.100000,-0.100000)"
fill="#000000" stroke="none">
<path d="M230 1571 c0 -56 4 -82 14 -91 18 -14 58 -10 64 8 2 7 -2 10 -11 6
-19 -7 -35 21 -33 56 1 18 7 26 24 28 28 4 24 26 -6 30 -14 2 -22 11 -22 23 0
10 -7 19 -15 19 -12 0 -15 -15 -15 -79z"/>
<path d="M730 1572 c0 -47 5 -83 12 -90 18 -18 58 -15 58 4 0 8 -5 12 -10 9
-19 -12 -40 16 -40 51 0 30 3 34 26 34 31 0 28 23 -4 28 -14 2 -22 11 -22 23
0 10 -4 19 -10 19 -6 0 -10 -33 -10 -78z"/>
<path d="M363 1599 c-26 -9 -43 -38 -43 -72 0 -43 61 -78 100 -57 31 17 24 30
-16 27 -22 -1 -39 3 -41 11 -3 8 9 12 41 12 41 0 46 2 46 23 0 12 -4 27 -8 34
-12 19 -55 31 -79 22z m55 -36 c2 -9 -8 -13 -33 -13 -33 0 -36 2 -25 15 15 18
51 16 58 -2z"/>
<path d="M480 1540 c0 -56 3 -70 15 -70 11 0 15 11 15 43 0 51 11 70 36 65 15
-2 20 -14 22 -56 2 -37 7 -52 18 -52 10 0 14 12 14 43 0 51 11 70 36 65 15 -2
20 -14 24 -53 4 -36 9 -50 20 -50 22 0 26 80 5 111 -16 25 -48 31 -74 15 -9
-6 -24 -5 -38 2 -18 8 -29 8 -44 -1 -11 -7 -19 -8 -19 -2 0 5 -7 10 -15 10
-12 0 -15 -14 -15 -70z"/>
<path d="M975 1600 c-1 -3 -2 -32 -1 -65 1 -47 4 -60 18 -63 14 -3 17 6 20 50
2 42 7 54 22 56 25 5 36 -14 36 -65 0 -31 4 -43 14 -43 11 0 16 15 18 53 3 48
5 52 28 52 23 0 25 -4 28 -52 2 -38 7 -53 18 -53 21 0 20 103 -2 124 -18 19
-55 21 -72 4 -8 -8 -15 -8 -24 -1 -13 11 -97 13 -103 3z"/>
<path d="M829 1584 c-18 -21 -17 -81 2 -99 21 -21 55 -26 85 -13 37 17 29 29
-17 26 -27 -2 -43 2 -46 10 -3 8 10 12 46 12 56 0 66 15 35 58 -19 27 -84 31
-105 6z m79 -21 c2 -9 -7 -13 -27 -13 -30 0 -39 9 -24 24 11 10 46 3 51 -11z"/>
<path d="M1725 1330 c-12 -5 4 -6 40 -3 33 3 62 7 64 9 9 8 -85 2 -104 -6z"/>
<path d="M1654 1304 c-18 -14 -18 -14 6 -3 31 14 36 19 24 19 -6 0 -19 -7 -30
-16z"/>
<path d="M1825 1300 c11 -5 27 -9 35 -9 9 0 8 4 -5 9 -11 5 -27 9 -35 9 -9 0
-8 -4 5 -9z"/>
<path d="M1768 1293 c7 -3 16 -2 19 1 4 3 -2 6 -13 5 -11 0 -14 -3 -6 -6z"/>
<path d="M1632 1274 c10 -10 20 -15 24 -12 3 4 -5 12 -18 18 -22 12 -22 12 -6
-6z"/>
<path d="M1899 1281 c11 -7 11 -9 0 -14 -8 -3 -5 -6 8 -6 12 -1 28 -7 35 -15
37 -38 59 -69 72 -101 15 -36 40 -46 49 -21 4 10 1 13 -7 10 -19 -7 -48 41
-41 69 5 17 -2 30 -29 55 -20 18 -36 28 -36 23 0 -5 13 -19 30 -32 33 -26 38
-39 15 -39 -8 0 -15 6 -15 13 0 12 -71 67 -87 67 -4 0 -2 -4 6 -9z"/>
<path d="M1788 1273 c7 -3 16 -2 19 1 4 3 -2 6 -13 5 -11 0 -14 -3 -6 -6z"/>
<path d="M1562 1237 c-7 -8 -6 -17 3 -30 7 -10 16 -14 19 -9 3 6 -1 13 -10 16
-13 5 -14 9 -4 21 7 8 10 15 7 15 -2 0 -9 -6 -15 -13z"/>
<path d="M1907 1239 c7 -7 15 -10 18 -7 3 3 -2 9 -12 12 -14 6 -15 5 -6 -5z"/>
<path d="M1940 1216 c0 -2 8 -10 18 -17 15 -13 16 -12 3 4 -13 16 -21 21 -21
13z"/>
<path d="M1990 1143 c0 -4 5 -15 10 -23 8 -13 10 -13 10 2 0 9 -4 20 -10 23
-5 3 -10 3 -10 -2z"/>
<path d="M1555 1090 c-3 -5 -1 -10 4 -10 6 0 11 5 11 10 0 6 -2 10 -4 10 -3 0
-8 -4 -11 -10z"/>
<path d="M2030 1080 c-7 -4 -10 -15 -7 -24 7 -18 32 -21 42 -6 9 15 -19 40
-35 30z"/>
<path d="M1996 1057 c3 -10 9 -15 12 -12 3 3 0 11 -7 18 -10 9 -11 8 -5 -6z"/>
<path d="M1491 1034 c0 -11 3 -14 6 -6 3 7 2 16 -1 19 -3 4 -6 -2 -5 -13z"/>
<path d="M2045 1020 c-3 -5 -2 -10 4 -10 5 0 13 5 16 10 3 6 2 10 -4 10 -5 0
-13 -4 -16 -10z"/>
<path d="M1798 1013 c23 -2 61 -2 85 0 23 2 4 4 -43 4 -47 0 -66 -2 -42 -4z"/>
<path d="M1953 1013 c15 -2 37 -2 50 0 12 2 0 4 -28 4 -27 0 -38 -2 -22 -4z"/>
<path d="M1570 874 c-11 -12 -10 -18 5 -32 18 -16 18 -16 5 2 -13 16 -12 20 5
32 10 8 14 14 8 14 -6 0 -16 -7 -23 -16z"/>
<path d="M1920 840 c0 -5 5 -10 10 -10 6 0 10 5 10 10 0 6 -4 10 -10 10 -5 0
-10 -4 -10 -10z"/>
<path d="M1892 811 c7 -12 16 -21 21 -21 4 0 5 -5 1 -12 -4 -6 -3 -8 3 -5 20
13 9 52 -15 55 -21 3 -22 2 -10 -17z"/>
<path d="M1946 803 c-6 -14 -5 -15 5 -6 7 7 10 15 7 18 -3 3 -9 -2 -12 -12z"/>
<path d="M1858 803 c7 -3 16 -2 19 1 4 3 -2 6 -13 5 -11 0 -14 -3 -6 -6z"/>
<path d="M1795 793 c-54 -8 -45 -18 16 -18 50 0 57 2 42 13 -9 6 -19 11 -22
11 -3 -1 -19 -4 -36 -6z"/>
<path d="M1671 772 c11 -8 23 -11 26 -8 4 3 0 6 -8 7 -8 0 -6 4 6 9 16 6 14 8
-13 7 -31 0 -31 -1 -11 -15z"/>
<path d="M1800 760 l-45 -7 53 -1 c33 -1 51 2 47 8 -3 6 -7 9 -8 8 -1 0 -22
-4 -47 -8z"/>
</g>
</svg>
