<svg xmlns="http://www.w3.org/2000/svg" viewBox="0 0 798.16 212.03"><defs><style>.cls-1{fill:#ff2c07;}.cls-2{fill:#ff2d08;}.cls-3{fill:#070707;}.cls-4{fill:#050505;}.cls-5{font-size:158.28px;font-family:Helvetica;}</style></defs><g id="Layer_2" data-name="Layer 2"><g id="Layer_1-2" data-name="Layer 1"><g id="logo_red_dark"><path class="cls-1" d="M195.49,76.58V25.22c0-3-.12-2.66,2.6-2.66,17.85,0,35.71,0,53.56.09a49.83,49.83,0,0,1,21.1,4.54C284,32.46,291,41.39,295,52.88a72.73,72.73,0,0,1,3.65,27A66.24,66.24,0,0,1,295.34,99c-5.3,15.42-16.1,24.9-31.68,29.13a72.78,72.78,0,0,1-18.86,2.43c-15.65,0-31.31,0-47,0-.41,0-.82,0-1.22,0-.86.05-1.15-.4-1.13-1.19s0-1.3,0-2Zm33.28-.28v1.47c0,7.74,0,15.48,0,23.22,0,1.78,0,1.83,1.67,1.83,4.73,0,9.46.12,14.18-.11,9.31-.45,16.14-5.8,19-14.64A38.21,38.21,0,0,0,265,71.15c-1.47-11.44-8.72-18.68-20.11-20.38-4.71-.71-9.43-.33-14.15-.42-2,0-2,0-2,2C228.76,60.33,228.77,68.31,228.77,76.3Z"/><path class="cls-2" d="M98.86,76.6q0-25.69,0-51.39c0-2.94-.19-2.65,2.61-2.65h85.89c.49,0,1,0,1.47,0,.74,0,1,.38,1,1.06,0,.08,0,.16,0,.25q0,12.6,0,25.2c0,.93-.34,1.35-1.29,1.28-.57-.05-1.14,0-1.71,0H135.46c-.49,0-1,0-1.46,0-1.79,0-1.83,0-1.84,1.72,0,3.34,0,6.69,0,10,0,1.12.28,1.71,1.5,1.59a16.26,16.26,0,0,1,1.71,0h52.37c2.1,0,2.12,0,2.13,2.13q0,10.65,0,21.29c0,2.68.08,2.4-2.35,2.4H135.13c-3.3,0-3-.42-3,3q0,4.16,0,8.32c0,1.94,0,2,2.05,2,3.1,0,6.2,0,9.3,0H188c1.75.05,1.78.05,1.79,1.74,0,3,0,6,0,9v14.68c0,2.64.07,2.31-2.44,2.31q-43.07,0-86.13,0c-2.39,0-2.4,0-2.4-2.37Q98.85,102.42,98.86,76.6Z"/><path class="cls-2" d="M47,22.56H92c1.76,0,1.79.05,1.8,1.73,0,2.45,0,4.89,0,7.34,0,5.38,0,10.77,0,16.15,0,2.83.23,2.55-2.69,2.56H65.89c-2.61,0-2.36-.11-2.36,2.39v73.16c0,1.06-.06,2.13,0,3.18s-.33,1.6-1.53,1.56c-2-.08-4.07,0-6.11,0q-11.62,0-23.25,0c-2.56,0-2.41.18-2.41-2.35q0-26.31,0-52.61c0-7.5,0-15,0-22.51,0-3.12.36-2.78-2.68-2.79q-12.36,0-24.71,0c-.58,0-1.15,0-1.72,0-.85,0-1.16-.41-1.13-1.2,0-.41,0-.82,0-1.23v-23c0-2.34,0-2.35,2.43-2.35Z"/><path class="cls-2" d="M370.43,88.74a4.28,4.28,0,0,1-2.25.25c-6.52,0-13,0-19.57.06a3.4,3.4,0,0,1-3.43-2c-2.82-4.87-5.78-9.64-8.69-14.46-.85.34-1,1.1-1.37,1.69q-3.93,6.61-7.81,13.28A2.33,2.33,0,0,1,325.07,89c-7.5-.07-15,0-22.58,0-.08-1.07.65-1.68,1.13-2.38q10.08-14.87,20.19-29.73c1.45-2.13,1.54-1.56,0-3.77q-9.58-14-19.19-28c-.49-.72-.95-1.47-1.4-2.18.52-.68,1.13-.44,1.65-.44,6.85,0,13.7,0,20.55-.05a2.75,2.75,0,0,1,2.84,1.7c2.16,4,4.44,8,6.68,11.95a5.42,5.42,0,0,0,1.47,2.09q2.3-3.91,4.54-7.81c1.31-2.26,2.62-4.51,3.91-6.78a1.77,1.77,0,0,1,1.68-1.13c7.64,0,15.29,0,23,0,.05,1-.56,1.49-.95,2.06Q358.86,38.75,349.13,53c-1.57,2.3-1.64,1.62-.06,4q10,14.77,20.07,29.53A6.16,6.16,0,0,1,370.43,88.74Z"/><path class="cls-3" d="M652.82,157.51h5.39c7.95.05,13.08,4.28,14.41,12.14a21.3,21.3,0,0,1-1.17,12A12.52,12.52,0,0,1,660,189.83c-4.8.27-9.62.07-14.43.14-1.06,0-1.4-.33-1.4-1.39q.06-14.79,0-29.6c0-1.22.45-1.52,1.58-1.49C648.09,157.56,650.46,157.51,652.82,157.51Zm-1.49,16.17c0,2.85,0,5.69,0,8.54,0,1.68,0,1.7,1.79,1.72s3.26.06,4.88,0a7.44,7.44,0,0,0,7.31-6,17.31,17.31,0,0,0-.1-8.22,7.38,7.38,0,0,0-6.38-5.9,54.43,54.43,0,0,0-5.84-.25c-1.25-.09-1.73.32-1.69,1.63C651.39,168,651.33,170.83,651.33,173.68Z"/><path class="cls-4" d="M616.57,173.71c0-4.81,0-9.63,0-14.44,0-1.71,0-1.75,1.73-1.75,7,0,14,0,21,0,1.33,0,1.72.48,1.59,1.7s.57,3.09-.32,4-2.63.3-4,.32c-3.67,0-7.34,0-11,0-1.77,0-1.8,0-1.81,1.67s-.52,3.68.27,4.75,3,.34,4.62.39c3.1.08,6.2.07,9.3,0,1.19,0,1.5.39,1.53,1.54.11,4.21.16,4.2-4,4.21-3.43,0-6.85,0-10.28,0-1.21,0-1.54.37-1.48,1.53a44.32,44.32,0,0,1,0,4.89c-.07,1.22.43,1.5,1.56,1.48,4.4-.05,8.81,0,13.21,0,.57,0,1.14,0,1.71,0,.76,0,1,.37,1,1.05v.24c.35,4.72.35,4.72-4.42,4.72-5.87,0-11.74,0-17.61,0-3.15,0-2.63.28-2.65-2.79C616.55,182.68,616.57,178.19,616.57,173.71Z"/><path class="cls-3" d="M431.84,168.77a1,1,0,0,0,.4-1c-.09-1,.32-1.49,1.4-1.41a27.87,27.87,0,0,0,3.42,0c1.09-.07,1.4.38,1.39,1.41,0,3.42,0,6.85,0,10.27s0,7,0,10.52c-.07,5.53-2.8,8.92-8.2,9.91a15.73,15.73,0,0,1-9.6-.78,7.28,7.28,0,0,1-4.73-6.44c1.93,0,3.71,0,5.5,0,.67,0,1,.36,1.31.87,1.44,2.08,3.37,2.73,6,2.12,2-.46,3.17-2,3.48-4.49a10,10,0,0,0,0-3.14c-.24-.08-.41-.14-.65.07-5.78,5-13.75,2.69-15.8-4.7a14.92,14.92,0,0,1,.66-10.5c2.12-4.59,6.29-6.43,11.34-5.44A7.48,7.48,0,0,1,431.84,168.77Zm-10.17,8.74a10.06,10.06,0,0,0,.35,2.88c.83,2.62,2.54,4,4.87,4a5.26,5.26,0,0,0,5-4,10,10,0,0,0-.29-6.45,4.64,4.64,0,0,0-4.65-3.24,4.75,4.75,0,0,0-4.7,3.19A8.57,8.57,0,0,0,421.67,177.51Z"/><path class="cls-3" d="M128,189.84a41.5,41.5,0,0,1-6,0c-.5-.62-.1-1.34-.39-1.95a.6.6,0,0,0-.62.1,9.69,9.69,0,0,1-15.4-3,15.59,15.59,0,0,1-.82-11.89c2.51-8.1,11.49-9.3,16.19-4.74.77-.28.45-.95.46-1.44,0-2.69,0-5.38,0-8.07,0-1.06.38-1.46,1.43-1.38,1.61.13,3.61-.63,4.75.3s.36,2.92.36,4.43C128,171.35,128,180.47,128,189.84Zm-6.3-11.76a10.5,10.5,0,0,0-1-4.72,5.17,5.17,0,0,0-8.76-.47c-1.91,2.75-1.83,8,.16,10.66a5.07,5.07,0,0,0,8.79-.94A10.2,10.2,0,0,0,121.72,178.08Z"/><path class="cls-3" d="M163.49,188c0,2.86-.05,5.79,0,8.72,0,1.2-.39,1.62-1.54,1.48-1.59-.19-3.62.71-4.67-.41s-.28-3-.29-4.48q0-12.47,0-24.92c0-2,0-2,2-2,.9,0,1.8.07,2.69,0,1.3-.13,1.79.41,1.61,1.67a.5.5,0,0,0,.36.62,8.56,8.56,0,0,1,6.12-2.85c5.24-.12,8.88,2.39,10.45,7.41A16.09,16.09,0,0,1,180,184c-2.58,6.73-9.94,8.68-15.53,4.15C164.25,188,164.12,187.77,163.49,188Zm-.16-9.87a9.85,9.85,0,0,0,1.15,5.07c2.07,3.34,7.14,3.31,8.9-.18a10.23,10.23,0,0,0-.18-9.85,4.66,4.66,0,0,0-4.7-2.47,4.71,4.71,0,0,0-4.23,2.83A9.36,9.36,0,0,0,163.33,178.17Z"/><path class="cls-4" d="M567,187.73c-5.83,5.05-13.68,3.16-16.34-3.79a15.34,15.34,0,0,1,.21-12.14c2.8-6.24,9.85-7.93,15.24-3.69.18.14.38.24.94.58,0-2.41,0-4.56,0-6.72,0-1.43-.66-3.3.36-4.19s2.8-.2,4.25-.27c.33,0,.66,0,1,0,.6,0,.91.25.89.87,0,.4,0,.81,0,1.22q0,14.19,0,28.37c0,2.1.12,2-2,2h-1.95C567.41,189.94,567.41,189.94,567,187.73Zm.21-9.43a9.8,9.8,0,0,0-.95-4.87,4.71,4.71,0,0,0-4.31-2.69,4.64,4.64,0,0,0-4.68,2.49,10.16,10.16,0,0,0,.21,10,4.73,4.73,0,0,0,5,2.31,4.67,4.67,0,0,0,4-3.11A9.59,9.59,0,0,0,567.18,178.3Z"/><path class="cls-4" d="M251.5,187.54a8.74,8.74,0,0,1-6.43,3c-4.33.12-7.62-1.65-9.52-5.58a15.28,15.28,0,0,1-.46-12.8c2.68-6.67,10.08-8.46,15.62-3.85a3.58,3.58,0,0,0,.71.27v-2.89c0-2.12,0-4.24,0-6.36,0-1.83,0-1.87,1.88-1.84,1.45,0,3.28-.62,4.23.29s.33,2.77.33,4.21c0,8.65,0,17.29,0,25.94,0,2.13.14,2-2,2-.74,0-1.47,0-2.21,0C251.91,189.93,251.91,189.93,251.5,187.54Zm.13-9.31a11.85,11.85,0,0,0-.76-4.39,4.85,4.85,0,0,0-4.56-3.1,4.75,4.75,0,0,0-4.9,2.95,10.48,10.48,0,0,0,.22,9.19,4.8,4.8,0,0,0,5,2.72,4.74,4.74,0,0,0,4.32-3.38A13.83,13.83,0,0,0,251.63,178.23Z"/><path class="cls-3" d="M463.52,190c-1.94,0-3.72-.1-5.49,0-1.35.1-.94-1.33-1.79-1.74a12.28,12.28,0,0,1-9.43,2.18c-4.73-.67-7-4.45-5.69-9.4a5.66,5.66,0,0,1,3.86-3.78,23.17,23.17,0,0,1,5.49-1.11,29,29,0,0,0,3.84-.65,2.37,2.37,0,0,0,2.06-2.38,2.8,2.8,0,0,0-2.31-2.76c-2.87-.7-4.61.06-5.92,2.69a1.08,1.08,0,0,1-1.12.68c-.49,0-1,0-1.47,0h-4a6.87,6.87,0,0,1,4.33-6.62,17.49,17.49,0,0,1,13.33-.17,5.43,5.43,0,0,1,3.66,5.52c0,2.85,0,5.7,0,8.55S462.65,186.84,463.52,190Zm-7.13-11.23a21,21,0,0,1-4.33.95,7.61,7.61,0,0,0-3.46,1.06,2.85,2.85,0,0,0-1.33,2.93,2.68,2.68,0,0,0,2.17,2.34c3.83,1,6.66-.94,6.95-4.89C456.44,180.39,456.39,179.66,456.39,178.72Z"/><path class="cls-4" d="M205.64,182.86c-1.13,3.54-3.24,6.11-6.93,7.18a13.83,13.83,0,0,1-8.65-.22,10.29,10.29,0,0,1-6.31-6.09,14.36,14.36,0,0,1-.37-9.82c1.7-5.44,6.38-8.42,12.49-8.06,5,.29,9,4.09,10,9.49.8,4.4.8,4.4-3.7,4.4-3.83,0-7.66,0-11.5,0-1.37,0-1.55.28-1.29,1.59.78,4.06,6.16,6,9.2,2.95,1.66-1.66,3.26-1.73,5.18-1.69A3.41,3.41,0,0,1,205.64,182.86Zm-16.25-7.35h10.06c-.7-3.58-2.13-4.87-5.16-4.77C191.43,170.84,189.83,172.36,189.39,175.51Z"/><path class="cls-3" d="M709.77,182.59c-1.22,4-3.51,6.54-7.27,7.55a13.91,13.91,0,0,1-7.49,0c-5.14-1.45-8.16-5.74-8.21-11.67-.07-9.53,7.89-14.34,15.59-12.08,4.59,1.34,6.8,4.84,7.6,9.3.74,4.09.67,4.1-3.51,4.1-3.83,0-7.66,0-11.49,0-1.64,0-1.83.28-1.44,1.86,1,3.9,6.22,5.62,9.16,2.66,1.58-1.6,3.1-1.7,4.94-1.68Zm-6.3-7c-.37-3.35-1.91-4.86-4.92-4.83s-4.73,1.68-5,4.83Z"/><path class="cls-3" d="M267.29,180.09c0,2.32.8,4.35,3.2,5.15s4.84.71,6.54-1.32a3.61,3.61,0,0,1,3.35-1.34c1,0,1.95,0,3.19,0a9.7,9.7,0,0,1-4.9,6.64c-5.74,3.23-13.7,1-16.57-4.63-3.35-6.54-.91-14.84,5.29-17.68,5.62-2.57,14.33-1.36,16.37,8.16,1,4.66,1,4.66-3.75,4.66-3.58,0-7.17,0-10.75,0A2.75,2.75,0,0,0,267.29,180.09Zm0-4.42h10.08c-.44-3.4-1.84-4.83-4.58-4.93C269.68,170.64,268,172.07,267.27,175.67Z"/><path class="cls-3" d="M755.79,182.59c-1.3,4.17-3.71,6.69-7.58,7.65a13.93,13.93,0,0,1-6.79,0,10.64,10.64,0,0,1-7.89-7.29,14.16,14.16,0,0,1-.35-8c2.05-8.45,10.1-10.6,16-8.37,4.12,1.56,6.13,4.94,6.85,9.13.68,4,.62,4-3.37,4s-7.83,0-11.74,0c-1.52,0-1.71.28-1.4,1.7.87,4,6.27,5.83,9.26,2.78a5.51,5.51,0,0,1,4.71-1.64C754.14,182.61,754.79,182.59,755.79,182.59Zm-6.31-7c-.37-3.36-1.9-4.87-4.91-4.83s-4.72,1.65-5.05,4.83Z"/><path class="cls-3" d="M153.71,182.59c-1.22,4.16-3.67,6.67-7.52,7.63a14,14,0,0,1-7.26-.13c-5.09-1.47-8.14-5.81-8.23-11.7-.1-6.08,3.49-11.1,9.16-12.26,9.94-2,14.55,5.54,14.33,12.71,0,1-.69.9-1.35.9H139.63c-2.47,0-2.7.47-1.81,2.85,1.42,3.79,7.12,3.83,8.89,1.67,1.39-1.7,2.92-1.74,4.71-1.67C152.06,182.61,152.71,182.59,153.71,182.59Zm-6.24-7c-.58-3.58-2.13-5-5.27-4.83-2.83.14-4.54,1.88-4.69,4.83Z"/><path class="cls-3" d="M547.3,182.59c-1.31,4-3.58,6.57-7.36,7.56a13.91,13.91,0,0,1-7.49-.08c-5.05-1.46-8.05-5.58-8.16-11.46-.18-9.6,7.77-14.59,15.64-12.26,4.69,1.39,6.86,5,7.6,9.58.61,3.8.53,3.81-3.36,3.81s-7.82,0-11.74,0c-1.53,0-1.72.27-1.44,1.68.81,4,6.24,5.86,9.25,2.81a5.46,5.46,0,0,1,4.71-1.65C545.6,182.61,546.25,182.59,547.3,182.59ZM531,175.52h10c-.71-3.59-2.13-4.87-5.15-4.78C533,170.83,531.42,172.35,531,175.52Z"/><path class="cls-3" d="M338.39,192.91a9.23,9.23,0,0,1,3-.08c2.31-.06,3.43-1.34,3-3.64a12.74,12.74,0,0,0-.73-2.32q-3.47-9.26-7-18.5c-.2-.53-.36-1.07-.67-2h6.13c1,0,1.06.8,1.29,1.49,1.25,3.78,2.52,7.56,3.78,11.34.25.74.51,1.48.81,2.37.93-.54,1-1.32,1.16-1.95,1.29-4,2.59-7.89,3.79-11.86.31-1,.76-1.46,1.86-1.41,1.68.08,3.36,0,5,0a2.81,2.81,0,0,1-.38,2.09c-2.92,7.94-5.94,15.84-8.79,23.8-2.22,6.2-6.11,6.16-11.61,5.8-.66,0-.72-.56-.73-1.06C338.38,195.66,338.39,194.28,338.39,192.91Z"/><path class="cls-3" d="M293.48,189.78A44.28,44.28,0,0,1,288,190c-1,0-1-.48-1-1.22,0-1.63,0-3.26,0-4.89q0-7.47,0-14.92a5.63,5.63,0,0,1,.23-2.46h5.56c.63.61,0,1.5.6,2.05.62.28.87-.23,1.21-.54,2.64-2.31,5.71-2.55,9-1.84a6.43,6.43,0,0,1,5,5.09,9,9,0,0,1,.32,2.17c0,5.45,0,10.89,0,16.43a34.23,34.23,0,0,1-6.48,0c0-4.17,0-8.24,0-12.3a20.91,20.91,0,0,0-.16-3.17A3.58,3.58,0,0,0,299,171a4.44,4.44,0,0,0-4.74,2.27,8.42,8.42,0,0,0-.75,3.8v12.74Z"/><path class="cls-3" d="M759,189.78v-9.29c0-4.23,0-8.46,0-12.7,0-1.06.36-1.48,1.41-1.4.73.06,1.47,0,2.2,0,2.54,0,2.54,0,2.87,2.44.4.19.57-.15.78-.36,3-3,6.62-3.25,10.4-2,2.7.87,3.85,3.13,4.26,5.77a24.67,24.67,0,0,1,.2,3.65c0,4.24,0,8.47,0,12.7,0,1-.26,1.46-1.35,1.4-1.62-.08-3.24,0-5,0a15.81,15.81,0,0,1-.15-3.67c0-3.1,0-6.19,0-9.29a17.75,17.75,0,0,0-.11-2.19c-.34-2.44-1.54-3.68-3.67-3.86a4.26,4.26,0,0,0-4.9,3.44,23.69,23.69,0,0,0-.37,4.62c-.06,3.09-.07,6.18,0,9.28,0,1.19-.19,1.83-1.58,1.69A47.73,47.73,0,0,1,759,189.78Z"/><path class="cls-3" d="M466.85,190c0-7.6,0-14.93,0-22.25,0-.91.28-1.35,1.25-1.31a26,26,0,0,0,3.42,0c1.31-.11,1.79.4,1.61,1.67a3.4,3.4,0,0,0,.05.71c.52.29.73-.12,1-.39,2.63-2.66,5.86-3,9.28-2.23s5.08,3,5.34,6.71c.2,2.76.14,5.53.17,8.3,0,2.52,0,5,0,7.57,0,1-.29,1.29-1.25,1.25-1.7-.06-3.4,0-5.29,0,0-4.22,0-8.27,0-12.33a21.87,21.87,0,0,0-.1-2.92c-.35-2.43-1.6-3.62-3.76-3.76a4.28,4.28,0,0,0-4.78,3.3,15.79,15.79,0,0,0-.39,4.12c0,3.34-.06,6.68,0,10,0,1.34-.45,1.67-1.68,1.6C470.21,189.89,468.66,190,466.85,190Z"/><path class="cls-3" d="M215.09,166.4l.16,2.61c.63,0,.81-.4,1.06-.67,2.85-3.15,7.89-3,10.67-1.73,2.51,1.11,3.58,3.27,3.85,5.82a57.18,57.18,0,0,1,.19,5.86c0,3.42,0,6.84,0,10.26,0,1-.21,1.48-1.33,1.42-1.62-.08-3.25,0-4.81,0-.58-.66-.35-1.34-.36-1.95,0-3.5,0-7,0-10.51a21.76,21.76,0,0,0-.11-2.68c-.32-2.46-1.52-3.68-3.66-3.87a4.35,4.35,0,0,0-4.93,3.43,14.4,14.4,0,0,0-.28,3.65V189.8a36.25,36.25,0,0,1-6.41.06,5,5,0,0,1-.22-2.45q0-9.16,0-18.33c0-3.06-.32-2.64,2.79-2.68C212.76,166.39,213.81,166.4,215.09,166.4Z"/><path class="cls-3" d="M597,189.77V163.5H587.2c0-1.57.07-3,0-4.33s.29-1.75,1.61-1.69c2.11.1,4.23,0,6.35,0,5.62,0,11.23,0,16.85,0,1.83,0,1.87,0,1.86,1.88,0,1.29.54,2.9-.24,3.79s-2.46.22-3.74.33c-1.83.16-3.7-.3-5.51.27a23.86,23.86,0,0,0-.18,5.34c0,6.35,0,12.7,0,19.05,0,1.73,0,1.75-1.7,1.77s-3.09,0-4.63,0A6.84,6.84,0,0,1,597,189.77Z"/><path class="cls-3" d="M384.74,165.83c7.36,0,12.07,4.89,12.05,12.43s-4.82,12.35-12.18,12.35-12.2-4.92-12.22-12.36S377.22,165.8,384.74,165.83ZM379,178.13a14.15,14.15,0,0,0,.45,3.57c.9,2.67,2.53,3.93,5.2,3.92a5,5,0,0,0,5.17-4,12.08,12.08,0,0,0,0-7,5.12,5.12,0,0,0-5-3.95c-2.66-.08-4.36,1.15-5.33,3.75A13.4,13.4,0,0,0,379,178.13Z"/><path class="cls-4" d="M85.52,169.25a9.36,9.36,0,0,1,8.79-3.37c3.54.38,5.65,2.21,6.44,5.67a13.77,13.77,0,0,1,.39,3.14c0,4.48,0,9,0,13.45,0,1.76,0,1.78-1.67,1.81s-3.08,0-4.81,0c0-4,0-7.81,0-11.63a19.66,19.66,0,0,0-.29-4.13c-.46-2.07-1.48-3-3.43-3.24a4.3,4.3,0,0,0-4.65,2.42,9.81,9.81,0,0,0-.74,4c0,3.67,0,7.34,0,11,0,1.13-.24,1.64-1.48,1.54a34,34,0,0,0-3.91,0c-.87,0-1.1-.34-1.1-1.16q0-10.63,0-21.27c0-.83.32-1.17,1.16-1.14a26,26,0,0,0,3.18,0c1.28-.11,2.06.2,1.87,1.68A5.49,5.49,0,0,0,85.52,169.25Z"/><path class="cls-3" d="M510.07,185c4.12,0,7.7.05,11.29,0,1.29,0,1.68.41,1.64,1.68-.12,3.93.49,3.26-3.14,3.29-5.3,0-10.6,0-15.9,0a5.85,5.85,0,0,1-2.6-.24c0-1.22.05-2.51,0-3.8a2.84,2.84,0,0,1,1.06-2.1c3-3.41,6.07-6.82,9.08-10.25a4.67,4.67,0,0,0,1.43-2c-.74-.53-1.57-.24-2.34-.26-1.71-.05-3.42,0-5.13,0-1,0-2.41.53-3-.38-.66-1.07-.28-2.53-.17-3.82.07-1,.95-.68,1.54-.69,5.54,0,11.08,0,16.62,0a4,4,0,0,0,.49,0c.86-.07,1.08.36,1.14,1.16.17,2.35-.16,4.34-2,6.16-2.9,2.85-5.46,6-8.17,9.09C511.39,183.4,510.89,184,510.07,185Z"/><path class="cls-2" d="M3.52,166.41c1.93,0,3.72.07,5.51,0a2.4,2.4,0,0,1,2.39,1.28c1,1.56,2.06,3.07,3.23,4.81,1.21-1.81,2.29-3.32,3.27-4.9a2.15,2.15,0,0,1,2.17-1.18c1.78.08,3.55,0,5.31,0,.21.91-.4,1.33-.75,1.83-1.75,2.55-3.48,5.13-5.34,7.59a2.23,2.23,0,0,0-.06,3.18c2.15,2.87,4.13,5.86,6.15,8.81a4.4,4.4,0,0,1,1.11,2.12c-2.17,0-4.25,0-6.33,0-.93,0-1.22-.71-1.62-1.3-1.27-1.87-2.51-3.77-3.88-5.84a32.36,32.36,0,0,0-3.83,5.48A3,3,0,0,1,7.7,190c-1.59-.12-3.2,0-4.94,0A4.82,4.82,0,0,1,4,187.62c2-3,4-5.94,6.08-8.86a1.76,1.76,0,0,0,0-2.38c-1.86-2.57-3.65-5.19-5.44-7.81A3.84,3.84,0,0,1,3.52,166.41Z"/><path class="cls-3" d="M710.11,166.58a1.71,1.71,0,0,1,.32-.1c2-.11,4.4-.73,6,.19s1.41,3.47,2,5.3c1,3.13,2,6.3,3,9.43,1-.11.84-.86,1-1.32,1.27-4,2.48-7.92,3.72-11.88.56-1.78.57-1.78,2.51-1.8h4.07c.48.71,0,1.19-.14,1.7-2.25,6.71-4.57,13.4-6.76,20.13-.43,1.3-.94,1.92-2.38,1.75a32.47,32.47,0,0,0-3.42,0c-2,0-2,0-2.7-1.9-2-5.78-3.94-11.56-5.92-17.33A26.12,26.12,0,0,1,710.11,166.58Z"/><path class="cls-3" d="M325.52,185c.14.16.24.22.24.28.12,5.46,1.06,4.9-4.7,4.94a8.31,8.31,0,0,1-1.21-.14c-3.85-.63-5.19-2.18-5.21-6.06,0-3.5,0-7,0-10.5,0-.41,0-.82,0-1.22.12-1.09-.18-1.75-1.45-1.56-.39.07-.81,0-1.21,0-1,.08-1.35-.34-1.27-1.28a7.12,7.12,0,0,0,0-1.46c-.15-1.26.34-1.83,1.63-1.65.32,0,.66,0,1,0,1.13.16,1.36-.42,1.33-1.41-.06-1.79,0-3.57,0-5.4a42.35,42.35,0,0,1,5.47-.18c.87,0,1.11.37,1.09,1.17,0,1.47,0,2.94,0,4.4,0,1,.25,1.57,1.35,1.41a4,4,0,0,1,.49,0c2.92.06,3.37.64,2.86,3.57a.82.82,0,0,1-1,.81h-.73c-3,.08-3,.08-3,3,0,2.69,0,5.37,0,8.06,0,2.9.39,3.22,3.25,3.23Z"/><path class="cls-4" d="M798,185c0,.52.09.84.09,1.15.1,4.22.08,4.23-4.25,4.09a13.76,13.76,0,0,1-1.7-.15c-4-.61-5.29-2.09-5.31-6.2,0-3.83,0-7.67,0-11.5,0-1.26-.35-1.82-1.64-1.64-.32,0-.65,0-1,0-.92.09-1.38-.27-1.28-1.24,0-.32,0-.65,0-1,0-2-.32-2.26,2.07-2.17,2,.07,1.83-.1,1.81-1.93,0-1.38,0-2.77,0-4.15,0-.62.26-.9.86-.89h.25c1.7.07,3.79-.66,5,.27s.3,3.05.38,4.64c.1,2,0,2,2,2.06,3.06.06,3,0,2.86,3.12-.05.93-.32,1.36-1.28,1.27-.32,0-.65,0-1,0-2.78,0-2.53-.3-2.54,2.44s0,5.71,0,8.56.4,3.25,3.23,3.25Z"/><path class="cls-4" d="M328.22,173.71c0-4.64,0-9.27,0-13.91,0-2.57-.26-2.26,2.4-2.29h3.17c.6,0,.9.26.88.87,0,.41,0,.81,0,1.22q0,14.16,0,28.31c0,2,.28,2.05-1.91,2-1.14,0-2.28,0-3.41,0-.83,0-1.16-.26-1.15-1.12.05-2,0-3.9,0-5.86Z"/><path class="cls-4" d="M405.71,169.7a12.26,12.26,0,0,1,2.54-2.47,8.27,8.27,0,0,1,3.86-1.39c2.05-.12,2.19,0,2.22,2.08,0,1.28,0,2.57,0,3.93-1.07,0-1.94,0-2.82,0a5.59,5.59,0,0,0-5.5,4.35,11.39,11.39,0,0,0-.41,3.38q0,4.28,0,8.55c0,1.79,0,1.8-1.9,1.82-1,0-2-.07-2.93,0-1.25.11-1.67-.28-1.66-1.6.07-5.78,0-11.56,0-17.35,0-1.05.07-2.12,0-3.17-.1-1.24.46-1.55,1.57-1.46a15.93,15.93,0,0,0,2.93,0c1.3-.13,1.79.36,1.65,1.63A2,2,0,0,0,405.71,169.7Z"/><path class="cls-4" d="M74.9,189.71a21.2,21.2,0,0,1-6.2.09c-.61-1.73-.24-3.52-.26-5.27-.06-5.45,0-10.9,0-16.35,0-1.73,0-1.74,1.73-1.77,1.13,0,2.28.06,3.41,0s1.36.43,1.35,1.43C74.89,175.05,74.9,182.29,74.9,189.71Z"/><path class="cls-4" d="M498.63,178.23c0,3.42-.05,6.84,0,10.25,0,1.21-.38,1.58-1.53,1.49a22.83,22.83,0,0,0-3.41,0c-1.1.07-1.59-.18-1.58-1.45.07-6.83.06-13.66,0-20.49,0-1.26.35-1.77,1.65-1.65,1,.1,1.95,0,2.92,0,1.87,0,1.9,0,1.91,1.82C498.64,171.57,498.63,174.9,498.63,178.23Z"/><path class="cls-3" d="M45.61,185.81c-3.25,0-6.5,0-9.75,0-1,0-1.39-.32-1.43-1.38-.17-3.56-.21-3.56,3.34-3.56H55.33c2,0,2.05,0,2.05,1.93,0,3.59.22,2.94-3,3C51.47,185.84,48.54,185.81,45.61,185.81Z"/><path class="cls-3" d="M46.11,171.17c3.26,0,6.53.05,9.79,0,1.2,0,1.5.36,1.51,1.53.05,3.45.1,3.45-3.28,3.45H36.52c-2,0-2,0-2.07-1.91-.05-3-.05-3,3.1-3Z"/><path class="cls-3" d="M74.6,157.51a2.15,2.15,0,0,1,.18.36,15.7,15.7,0,0,1-.06,4.79c-1.81.54-3.65.14-5.48.23a.69.69,0,0,1-.8-.69c0-.16,0-.32,0-.48-.36-4.21-.36-4.21,3.86-4.21Z"/><path class="cls-3" d="M495.3,162.91c-3.14,0-3.14,0-3.13-3v-.25c0-2.26-.22-2.1,2.11-2.1h.49c4.08,0,4.05,0,3.89,4,0,1-.32,1.51-1.4,1.4C496.61,162.86,496,162.91,495.3,162.91Z"/><text class="cls-5" transform="translate(368.44 135.91)">ENP</text></g></g></g></svg>